<?xml version="1.0" standalone="no"?>
<!DOCTYPE svg PUBLIC "-//W3C//DTD SVG 1.1//EN" "http://www.w3.org/Graphics/SVG/1.1/DTD/svg11.dtd" >
<svg>
<metadata>
Created by FontForge 20120731 at Tue Mar 18 17:26:46 2025
 By www
Monkey Type &#38; Mitch Paone 2016
</metadata>
<defs>
<font id="BananaGrotesk-Extrabold" horiz-adv-x="0" >
  <font-face 
    font-family="Banana Grotesk Extrabold"
    font-weight="800"
    font-stretch="normal"
    units-per-em="1000"
    panose-1="0 0 9 0 0 0 0 0 0 0"
    ascent="800"
    descent="-200"
    x-height="505"
    cap-height="700"
    bbox="-382 -315 1182 931"
    underline-thickness="50"
    underline-position="-50"
    unicode-range="U+0020-25CA"
  />
<missing-glyph horiz-adv-x="918" 
d="M459 715q187 0 308 -121t121 -308t-121 -308t-308 -121t-308 121t-121 308t121 308t308 121zM559 246q35 26 51.5 42t31.5 44.5t15 63.5q0 80 -52.5 128t-140.5 48q-92 0 -147 -51t-55 -136q0 -47 21 -84l97 40q-8 22 -8 49q0 36 25 58t66 22q37 0 59 -21t22 -55
q0 -53 -74 -111q-34 -27 -47 -52.5t-9 -60.5h96q2 26 11 39.5t38 36.5zM521 0v115h-117v-115h117z" />
    <glyph glyph-name=".notdef" horiz-adv-x="918" 
d="M459 715q187 0 308 -121t121 -308t-121 -308t-308 -121t-308 121t-121 308t121 308t308 121zM559 246q35 26 51.5 42t31.5 44.5t15 63.5q0 80 -52.5 128t-140.5 48q-92 0 -147 -51t-55 -136q0 -47 21 -84l97 40q-8 22 -8 49q0 36 25 58t66 22q37 0 59 -21t22 -55
q0 -53 -74 -111q-34 -27 -47 -52.5t-9 -60.5h96q2 26 11 39.5t38 36.5zM521 0v115h-117v-115h117z" />
    <glyph glyph-name=".null" 
 />
    <glyph glyph-name="nonmarkingreturn" horiz-adv-x="333" 
 />
    <glyph glyph-name="space" unicode=" " horiz-adv-x="210" 
 />
    <glyph glyph-name="exclam" unicode="!" horiz-adv-x="255" 
d="M77 208l-27 492h155l-27 -492h-101zM55 0v142h146v-142h-146z" />
    <glyph glyph-name="quotedbl" unicode="&#x22;" horiz-adv-x="423" 
d="M40 462v238h135v-238h-135zM248 462v238h135v-238h-135z" />
    <glyph glyph-name="numbersign" unicode="#" horiz-adv-x="690" 
d="M630 394h-96l-30 -128h105l-21 -102h-108l-38 -164h-112l38 164h-123l-38 -164h-113l38 164h-92l21 102h95l30 128h-104l20 102h108l38 164h113l-38 -164h122l38 164h113l-38 -164h92zM392 266l29 128h-122l-30 -128h123z" />
    <glyph glyph-name="dollar" unicode="$" horiz-adv-x="634" 
d="M598 213q0 -93 -62 -150.5t-167 -69.5v-90h-84v88q-104 7 -167.5 60.5t-81.5 147.5l127 38q28 -108 122 -125v180q-48 10 -79 20.5t-66 32t-52.5 58.5t-17.5 90q0 90 59.5 149.5t155.5 70.5v89h84v-90q83 -11 136.5 -59.5t74.5 -123.5l-128 -35q-23 73 -83 94v-173
q41 -8 66 -14.5t60 -21.5t54.5 -35t34 -53.5t14.5 -77.5zM203 509q0 -31 21 -48t61 -29v162q-39 -7 -60.5 -29.5t-21.5 -55.5zM369 113q43 7 67.5 27.5t24.5 50.5q0 34 -23.5 52.5t-68.5 30.5v-161z" />
    <glyph glyph-name="percent" unicode="%" horiz-adv-x="855" 
d="M195 329q-73 0 -116.5 51t-43.5 139t43.5 139.5t116.5 51.5q72 0 115.5 -51.5t43.5 -139.5t-43.5 -139t-115.5 -51zM206 1l333 699h111l-332 -699h-112zM195 411q61 0 61 108q0 109 -61 109q-62 0 -62 -109q0 -108 62 -108zM661 -13q-73 0 -116.5 51t-43.5 139
t43.5 139.5t116.5 51.5q72 0 115.5 -51.5t43.5 -139.5t-43.5 -139t-115.5 -51zM661 69q61 0 61 108q0 109 -61 109q-62 0 -62 -109q0 -108 62 -108z" />
    <glyph glyph-name="ampersand" unicode="&#x26;" horiz-adv-x="655" 
d="M637 112l-24 -111q-84 13 -166 49q-82 -60 -184 -60q-106 0 -171.5 59t-65.5 151q0 112 109 190q-16 59 -16 113q0 106 52.5 157t131.5 51q78 0 122.5 -44.5t44.5 -110.5q0 -22 -7 -43t-14.5 -36.5t-26 -33t-29.5 -27t-37 -25t-35 -20.5t-38 -21q51 -94 148 -159
q47 64 60 147l106 -18q-15 -102 -67 -181q56 -22 107 -27zM306 609q-28 0 -47.5 -25.5t-19.5 -78.5q0 -27 6 -55q34 17 54 28.5t38.5 33t18.5 45.5q0 23 -14 37.5t-36 14.5zM266 100q36 0 70 14q-99 73 -154 168q-33 -33 -33 -77q0 -47 32 -76t85 -29z" />
    <glyph glyph-name="quotesingle" unicode="'" horiz-adv-x="215" 
d="M40 462v238h135v-238h-135z" />
    <glyph glyph-name="parenleft" unicode="(" horiz-adv-x="378" 
d="M268 -270q-104 104 -161 241.5t-57 278.5q0 257 218 519l90 -69q-169 -238 -169 -450q0 -119 44.5 -239t124.5 -211z" />
    <glyph glyph-name="parenright" unicode=")" horiz-adv-x="378" 
d="M110 -270l-90 70q80 91 124.5 211t44.5 239q0 212 -169 450l90 69q218 -262 218 -519q0 -141 -57 -278.5t-161 -241.5z" />
    <glyph glyph-name="asterisk" unicode="*" horiz-adv-x="485" 
d="M169 324l-83 60l72 101l-118 38l31 99l120 -40v126h103v-125l119 39l32 -98l-120 -39l75 -100l-84 -61l-74 100z" />
    <glyph glyph-name="plus" unicode="+" horiz-adv-x="600" 
d="M550 410v-120h-185v-190h-130v190h-185v120h185v190h130v-190h185z" />
    <glyph glyph-name="comma" unicode="," horiz-adv-x="246" 
d="M50 140h146v-167q0 -50 -29.5 -80t-78.5 -30q-43 0 -73 21l24 43q20 -12 49 -12q20 0 32.5 13.5t12.5 36.5v35h-83v140z" />
    <glyph glyph-name="hyphen" unicode="-" horiz-adv-x="410" 
d="M65 206v130h280v-130h-280z" />
    <glyph glyph-name="period" unicode="." horiz-adv-x="246" 
d="M50 0v142h146v-142h-146z" />
    <glyph glyph-name="slash" unicode="/" horiz-adv-x="543" 
d="M10 -200l376 900h147l-376 -900h-147z" />
    <glyph glyph-name="zero" unicode="0" horiz-adv-x="658" 
d="M329 -10q-134 0 -206.5 93.5t-72.5 267.5q0 175 72.5 269.5t206.5 94.5t206.5 -94.5t72.5 -269.5q0 -174 -72.5 -267.5t-206.5 -93.5zM329 120q64 0 99 60t35 171q0 113 -35 173.5t-99 60.5t-99 -60.5t-35 -173.5q0 -111 35 -171t99 -60z" />
    <glyph glyph-name="one" unicode="1" horiz-adv-x="398" 
d="M203 700h115v-700h-145v492q-56 -48 -158 -56v137q76 7 120.5 37t67.5 90z" />
    <glyph glyph-name="two" unicode="2" horiz-adv-x="592" 
d="M258 130h283v-130h-491v118l143 98q199 137 199 265q0 48 -27.5 76t-74.5 28t-75 -28t-28 -75q0 -32 12 -66l-129 -42q-22 52 -22 111q0 105 68 167.5t181 62.5q109 0 174.5 -61t65.5 -163q0 -87 -51.5 -164.5t-171.5 -158.5z" />
    <glyph glyph-name="three" unicode="3" horiz-adv-x="581" 
d="M414 369q60 -19 93.5 -64.5t33.5 -111.5q0 -92 -69.5 -147.5t-185.5 -55.5q-108 0 -174.5 51.5t-80.5 142.5l135 22q12 -42 44.5 -66.5t77.5 -24.5q49 0 78.5 25.5t29.5 69.5q0 46 -31 69.5t-86 23.5h-49v119h37q105 0 105 87q0 37 -24 59.5t-64 22.5q-38 0 -63.5 -26.5
t-35.5 -74.5l-132 18q7 97 71.5 152t167.5 55q101 0 162 -53t61 -142q0 -114 -101 -151z" />
    <glyph glyph-name="four" unicode="4" horiz-adv-x="583" 
d="M563 266v-128h-83v-138h-140v138h-320v121l313 441h147v-434h83zM345 504l-169 -238h169v238z" />
    <glyph glyph-name="five" unicode="5" horiz-adv-x="612" 
d="M342 471q101 0 161.5 -64.5t60.5 -171.5q0 -112 -72 -178.5t-192 -66.5q-91 0 -152.5 44.5t-86.5 123.5l129 44q35 -82 117 -82q52 0 83 31.5t31 84.5q0 54 -31.5 86t-84.5 32q-39 0 -68 -22.5t-44 -55.5l-130 30l51 394h412v-130h-297l-19 -145q54 46 132 46z" />
    <glyph glyph-name="six" unicode="6" horiz-adv-x="610" 
d="M347 452q103 0 165.5 -61t62.5 -159q0 -110 -70.5 -176t-183.5 -66q-128 0 -199.5 90.5t-71.5 264.5q0 169 75 269.5t201 100.5q183 0 234 -188l-117 -39q-36 102 -113 102q-64 0 -100.5 -53t-40.5 -152q59 67 158 67zM319 115q50 0 80.5 30.5t30.5 81.5q0 49 -31 80.5
t-80 31.5q-48 0 -78.5 -31.5t-30.5 -80.5t30.5 -80.5t78.5 -31.5z" />
    <glyph glyph-name="seven" unicode="7" horiz-adv-x="558" 
d="M25 700h508v-114q-100 -112 -145 -189.5t-59.5 -157t-14.5 -221.5v-18h-145v18q0 187 41.5 303t157.5 249h-198v-54h-145v184z" />
    <glyph glyph-name="eight" unicode="8" horiz-adv-x="594" 
d="M425 368q61 -23 95 -68t34 -106q0 -90 -71 -147t-186 -57t-186 57t-71 147q0 61 34 106t95 68q-105 46 -105 154q0 85 64.5 139t168.5 54t168.5 -54t64.5 -139q0 -108 -105 -154zM298 590q-43 0 -69 -23.5t-26 -61.5q0 -36 26 -58t69 -22t68.5 22t25.5 58
q0 38 -25.5 61.5t-68.5 23.5zM297 115q52 0 83.5 26.5t31.5 69.5q0 44 -31.5 70.5t-83.5 26.5q-51 0 -82.5 -27t-31.5 -70t31.5 -69.5t82.5 -26.5z" />
    <glyph glyph-name="nine" unicode="9" horiz-adv-x="610" 
d="M289 715q130 0 200.5 -91t70.5 -259q0 -172 -75 -273.5t-201 -101.5q-182 0 -233 185l117 41q35 -101 112 -101q64 0 100.5 53t40.5 152q-59 -67 -158 -67q-103 0 -165.5 60.5t-62.5 160.5q0 108 72 174.5t182 66.5zM291 366q48 0 78.5 31.5t30.5 80.5t-30.5 80.5
t-78.5 31.5q-50 0 -80.5 -30.5t-30.5 -81.5q0 -49 31 -80.5t80 -31.5z" />
    <glyph glyph-name="colon" unicode=":" horiz-adv-x="246" 
d="M50 365v140h146v-140h-146zM50 0v140h146v-140h-146z" />
    <glyph glyph-name="semicolon" unicode=";" horiz-adv-x="246" 
d="M50 505h146v-140h-146v140zM50 0v140h146v-167q0 -50 -29.5 -80t-78.5 -30q-43 0 -73 21l24 43q20 -12 49 -12q20 0 32.5 13.5t12.5 36.5v35h-83z" />
    <glyph glyph-name="less" unicode="&#x3c;" horiz-adv-x="600" 
d="M525 606v-132l-312 -123l312 -123v-132l-460 195v120z" />
    <glyph glyph-name="equal" unicode="=" horiz-adv-x="600" 
d="M50 389v120h500v-120h-500zM50 194v120h500v-120h-500z" />
    <glyph glyph-name="greater" unicode="&#x3e;" horiz-adv-x="600" 
d="M75 606l460 -195v-120l-460 -195v132l312 123l-312 123v132z" />
    <glyph glyph-name="question" unicode="?" horiz-adv-x="574" 
d="M233 213q-5 43 11.5 75t58.5 66q49 39 70.5 70.5t21.5 67.5q0 43 -27.5 69.5t-73.5 26.5q-52 0 -83 -27.5t-31 -73.5q0 -37 10 -61l-121 -50q-27 48 -27 105q0 107 69 170.5t184 63.5q110 0 175.5 -60t65.5 -160q0 -34 -8 -60.5t-28 -50t-36.5 -38t-49.5 -39.5
q-37 -28 -48 -44.5t-14 -49.5h-119zM220 0v144h146v-144h-146z" />
    <glyph glyph-name="at" unicode="@" horiz-adv-x="970" 
d="M516 -144q-207 0 -341.5 123t-134.5 312q0 125 62 227t169 159.5t235 57.5q180 0 302 -107.5t122 -268.5q0 -123 -71 -209t-166 -86q-44 0 -70 19.5t-31 53.5q-59 -81 -151 -81q-80 0 -132 58.5t-52 148.5q0 104 66.5 178t160.5 74q88 0 127 -76l18 67h103l-52 -259
q-7 -34 -7 -51q0 -40 38 -40q45 0 78.5 59t33.5 139q0 125 -87.5 203t-225.5 78q-155 0 -257.5 -97.5t-102.5 -246.5t101.5 -242t266.5 -93q119 0 243 54l41 -92q-158 -62 -286 -62zM462 160q51 0 84.5 46.5t33.5 106.5q0 48 -22 74.5t-61 26.5q-52 0 -87.5 -43.5
t-35.5 -104.5q0 -49 24 -77.5t64 -28.5z" />
    <glyph glyph-name="A" unicode="A" horiz-adv-x="724" 
d="M551 0l-48 134h-284l-49 -134h-152l268 700h151l269 -700h-155zM263 254h197l-97 274z" />
    <glyph glyph-name="B" unicode="B" horiz-adv-x="662" 
d="M517 357q105 -49 105 -164q0 -87 -63.5 -140t-166.5 -53h-322v700h310q101 0 163.5 -52.5t62.5 -138.5q0 -104 -89 -152zM461 494q0 37 -24 59t-63 22h-159v-162h159q39 0 63 22t24 59zM387 127q40 0 65 23t25 61q0 37 -25 59.5t-65 22.5h-172v-166h172z" />
    <glyph glyph-name="C" unicode="C" horiz-adv-x="738" 
d="M391 -10q-158 0 -254.5 100.5t-96.5 259.5q0 160 99 262.5t249 102.5q117 0 198 -59.5t112 -169.5l-128 -40q-45 139 -182 139q-89 0 -146 -65.5t-57 -170.5q0 -101 57.5 -165t151.5 -64q141 0 189 142l124 -36q-29 -109 -113 -172.5t-203 -63.5z" />
    <glyph glyph-name="D" unicode="D" horiz-adv-x="729" 
d="M334 700q167 0 261 -93t94 -257t-94 -257t-261 -93h-264v700h264zM333 130q98 0 154.5 59.5t56.5 160.5t-56.5 160.5t-154.5 59.5h-118v-440h118z" />
    <glyph glyph-name="E" unicode="E" horiz-adv-x="597" 
d="M562 570h-347v-150h310v-130h-310v-160h347v-130h-492v700h492v-130z" />
    <glyph glyph-name="F" unicode="F" horiz-adv-x="575" 
d="M540 570h-325v-190h284v-130h-284v-250h-145v700h470v-130z" />
    <glyph glyph-name="G" unicode="G" horiz-adv-x="754" 
d="M372 258v117h321v-375h-119v74q-63 -84 -197 -84q-140 0 -238.5 98.5t-98.5 258.5q0 164 99 266t249 102q109 0 188.5 -53t117.5 -149l-128 -47q-51 119 -179 119q-88 0 -145 -65t-57 -171q0 -101 57.5 -165t153.5 -64q71 0 117.5 36.5t51.5 101.5h-193z" />
    <glyph glyph-name="H" unicode="H" horiz-adv-x="733" 
d="M518 700h145v-700h-145v290h-303v-290h-145v700h145v-280h303v280z" />
    <glyph glyph-name="I" unicode="I" horiz-adv-x="285" 
d="M70 0v700h145v-700h-145z" />
    <glyph glyph-name="J" unicode="J" horiz-adv-x="577" 
d="M274 -9q-113 0 -173.5 61t-60.5 175v60h137v-35q0 -131 101 -131q45 0 69.5 26t24.5 75v478h145v-470q0 -115 -63 -177t-180 -62z" />
    <glyph glyph-name="K" unicode="K" horiz-adv-x="684" 
d="M492 0l-185 314l-92 -102v-212h-145v700h145v-295l262 295h183l-250 -273l256 -427h-174z" />
    <glyph glyph-name="L" unicode="L" horiz-adv-x="589" 
d="M215 130h344v-130h-489v700h145v-570z" />
    <glyph glyph-name="M" unicode="M" horiz-adv-x="898" 
d="M617 700h211v-700h-140v538l-170 -538h-143l-165 532v-532h-140v700h211l166 -550z" />
    <glyph glyph-name="N" unicode="N" horiz-adv-x="724" 
d="M514 700h140v-700h-176l-268 521v-521h-140v700h192l252 -493v493z" />
    <glyph glyph-name="O" unicode="O" horiz-adv-x="794" 
d="M397 -10q-157 0 -257 101.5t-100 260.5q0 160 100 261.5t257 101.5t257 -101.5t100 -261.5q0 -159 -100 -260.5t-257 -101.5zM397 120q96 0 154 64.5t58 167.5q0 104 -58 168.5t-154 64.5t-154 -64.5t-58 -168.5q0 -103 58 -167.5t154 -64.5z" />
    <glyph glyph-name="P" unicode="P" horiz-adv-x="648" 
d="M382 700q110 0 175.5 -59.5t65.5 -158.5q0 -105 -68 -168.5t-183 -63.5h-157v-250h-145v700h312zM375 380q48 0 75.5 26t27.5 69t-27.5 69t-75.5 26h-160v-190h160z" />
    <glyph glyph-name="Q" unicode="Q" horiz-adv-x="794" 
d="M757 93l-13 -116q-109 8 -185 48q-72 -35 -162 -35q-157 0 -257 101.5t-100 260.5q0 160 100 261.5t257 101.5t257 -101.5t100 -261.5q0 -143 -83 -242q34 -12 86 -17zM185 352q0 -103 58 -167.5t154 -64.5q23 0 50 5q-43 64 -57 158l124 22q10 -66 43 -114q52 65 52 161
q0 104 -58 168.5t-154 64.5t-154 -64.5t-58 -168.5z" />
    <glyph glyph-name="R" unicode="R" horiz-adv-x="666" 
d="M586 190l40 -190h-146l-29 146q-13 64 -46 90t-100 26h-90v-262h-145v700h308q107 0 171.5 -56.5t64.5 -149.5q0 -66 -34.5 -114.5t-94.5 -71.5q43 -13 67 -41t34 -77zM215 388h159q42 0 68.5 26t26.5 65t-26.5 65t-68.5 26h-159v-182z" />
    <glyph glyph-name="S" unicode="S" horiz-adv-x="615" 
d="M306 -10q-115 0 -187 54.5t-92 154.5l126 38q35 -123 161 -123q60 0 97 20.5t37 56.5q0 31 -21.5 49.5t-55.5 27.5t-75.5 16t-83 19.5t-75.5 32t-55.5 60t-21.5 97.5q0 99 71 160.5t182 61.5q102 0 168 -50t89 -136l-129 -35q-31 97 -136 97q-51 0 -80 -22.5t-29 -59.5
q0 -34 29 -53.5t72.5 -25.5t94.5 -18.5t94.5 -29.5t72.5 -60t29 -109q0 -105 -77.5 -164t-204.5 -59z" />
    <glyph glyph-name="T" unicode="T" horiz-adv-x="639" 
d="M624 700v-130h-232v-570h-145v570h-232v130h609z" />
    <glyph glyph-name="U" unicode="U" horiz-adv-x="698" 
d="M349 -10q-134 0 -211.5 80t-77.5 218v412h145v-409q0 -79 39 -125t105 -46t105 46t39 125v409h145v-412q0 -138 -77.5 -218t-211.5 -80z" />
    <glyph glyph-name="V" unicode="V" horiz-adv-x="699" 
d="M530 700h154l-252 -700h-154l-263 700h159l181 -528z" />
    <glyph glyph-name="W" unicode="W" horiz-adv-x="1081" 
d="M910 700h151l-199 -700h-174l-148 532l-150 -532h-172l-198 700h158l134 -523l139 523h187l139 -530z" />
    <glyph glyph-name="X" unicode="X" horiz-adv-x="702" 
d="M687 0h-178l-165 240l-163 -240h-166l246 359l-235 341h175l159 -228l152 228h165l-235 -347z" />
    <glyph glyph-name="Y" unicode="Y" horiz-adv-x="675" 
d="M500 700h160l-250 -428v-272h-145v271l-250 429h162l164 -293z" />
    <glyph glyph-name="Z" unicode="Z" horiz-adv-x="620" 
d="M220 130h365v-130h-545v122l362 448h-360v130h541v-122z" />
    <glyph glyph-name="bracketleft" unicode="[" horiz-adv-x="338" 
d="M318 700h-108v-900h108v-115h-238v1130h238v-115z" />
    <glyph glyph-name="backslash" unicode="\" horiz-adv-x="543" 
d="M533 -200h-147l-376 900h147z" />
    <glyph glyph-name="bracketright" unicode="]" horiz-adv-x="338" 
d="M20 815h238v-1130h-238v115h108v900h-108v115z" />
    <glyph glyph-name="asciicircum" unicode="^" horiz-adv-x="464" 
d="M424 425h-102l-90 151l-90 -151h-102l116 275h152z" />
    <glyph glyph-name="underscore" unicode="_" horiz-adv-x="627" 
d="M50 -100v100h527v-100h-527z" />
    <glyph glyph-name="grave" unicode="`" horiz-adv-x="281" 
d="M137 560l-97 140h147l54 -140h-104z" />
    <glyph glyph-name="a" unicode="a" horiz-adv-x="543" 
d="M265 520q104 0 163.5 -57t59.5 -151v-312h-128v62q-43 -72 -137 -72q-74 0 -119.5 42.5t-45.5 109.5q0 119 162 147l128 22q-2 40 -26.5 64.5t-63.5 24.5q-41 0 -66 -22t-41 -67l-109 33q14 79 74.5 127.5t148.5 48.5zM256 86q40 0 66 32.5t26 79.5v18l-87 -17
q-63 -13 -63 -60q0 -24 16 -38.5t42 -14.5z" />
    <glyph glyph-name="b" unicode="b" horiz-adv-x="622" 
d="M353 520q103 0 168.5 -74.5t65.5 -190.5q0 -117 -66 -191t-168 -74q-96 0 -148 72v-62h-140v700h140v-252q51 72 148 72zM326 110q53 0 87 40.5t34 104.5t-34 104.5t-87 40.5t-87 -40.5t-34 -104.5t34 -104.5t87 -40.5z" />
    <glyph glyph-name="c" unicode="c" horiz-adv-x="551" 
d="M292 -10q-118 0 -187.5 70.5t-69.5 184.5q0 121 72 198t185 77q88 0 146 -42t79 -117l-121 -35q-28 74 -104 74q-51 0 -84 -41t-33 -104q0 -64 33 -104.5t84 -40.5q42 0 70 17.5t49 54.5l110 -39q-26 -70 -86 -111.5t-143 -41.5z" />
    <glyph glyph-name="d" unicode="d" horiz-adv-x="622" 
d="M417 700h140v-700h-140v55q-48 -65 -143 -65q-107 0 -173 73.5t-66 191.5q0 117 65.5 191t173.5 74q95 0 143 -64v244zM296 110q53 0 87 40.5t34 104.5t-34 104.5t-87 40.5t-87 -40.5t-34 -104.5t34 -104.5t87 -40.5z" />
    <glyph glyph-name="e" unicode="e" horiz-adv-x="559" 
d="M287 520q119 0 187 -93.5t44 -212.5h-348q4 -50 39 -80t87 -30q77 0 126 62l86 -65q-34 -52 -89.5 -81.5t-124.5 -29.5q-111 0 -185 72t-74 188q0 118 71 194t181 76zM285 412q-45 0 -76.5 -29t-35.5 -77h218q-4 48 -33 77t-73 29z" />
    <glyph glyph-name="f" unicode="f" horiz-adv-x="387" 
d="M235 540v-35h118v-120h-118v-385h-140v385h-75v120h75v32q0 76 51 124.5t130 48.5q47 0 84 -21t57 -59l-91 -58q-18 21 -44 21q-20 0 -33.5 -14.5t-13.5 -38.5z" />
    <glyph glyph-name="g" unicode="g" horiz-adv-x="617" 
d="M415 505h140v-447q0 -123 -77 -195.5t-201 -72.5q-93 0 -160 46t-91 123l110 40q42 -89 146 -89q63 0 98 34t35 101v24q-52 -60 -139 -60q-102 0 -171.5 74t-69.5 182q0 107 69 181t172 74q85 0 139 -62v47zM295 129q52 0 85 38t33 97q0 60 -33 98t-85 38t-85 -38
t-33 -98q0 -59 33 -97t85 -38z" />
    <glyph glyph-name="h" unicode="h" horiz-adv-x="601" 
d="M362 520q85 0 134.5 -56t49.5 -143v-321h-140v302q0 45 -23.5 71.5t-64.5 26.5q-47 0 -80 -36.5t-33 -109.5v-254h-140v700h140v-265q55 85 157 85z" />
    <glyph glyph-name="i" unicode="i" horiz-adv-x="264" 
d="M58 579v131h147v-131h-147zM62 0v505h140v-505h-140z" />
    <glyph glyph-name="j" unicode="j" horiz-adv-x="272" 
d="M66 579v131h147v-131h-147zM37 -210q-80 0 -128 53l72 80q19 -16 39 -16q22 0 36 15t14 40v543h140v-532q0 -83 -47.5 -133t-125.5 -50z" />
    <glyph glyph-name="k" unicode="k" horiz-adv-x="575" 
d="M403 0l-127 208l-71 -78v-130h-140v700h140v-391l175 196h168l-179 -195l196 -310h-162z" />
    <glyph glyph-name="l" unicode="l" horiz-adv-x="270" 
d="M65 0v700h140v-700h-140z" />
    <glyph glyph-name="m" unicode="m" horiz-adv-x="911" 
d="M668 520q88 0 138 -53.5t50 -146.5v-320h-140v304q0 44 -21 70t-60 26q-46 0 -76 -38.5t-30 -119.5v-242h-140v304q0 44 -21 70t-60 26q-46 0 -76 -38.5t-30 -119.5v-242h-140v505h140v-67q44 82 145 82q107 0 155 -84q57 84 166 84z" />
    <glyph glyph-name="n" unicode="n" horiz-adv-x="598" 
d="M356 520q83 0 135 -54t52 -145v-321h-140v302q0 45 -23.5 71.5t-64.5 26.5q-47 0 -80 -36.5t-33 -109.5v-254h-140v505h140v-67q53 82 154 82z" />
    <glyph glyph-name="o" unicode="o" horiz-adv-x="594" 
d="M296 -10q-111 0 -186 75t-75 188t75.5 190t187.5 77q111 0 186 -75t75 -188t-75.5 -190t-187.5 -77zM299 110q54 0 87 40t33 104q0 65 -34.5 105.5t-88.5 40.5t-87.5 -40t-33.5 -104q0 -65 34.5 -105.5t89.5 -40.5z" />
    <glyph glyph-name="p" unicode="p" horiz-adv-x="619" 
d="M354 520q100 0 165 -73.5t65 -189.5q0 -120 -64.5 -193.5t-165.5 -73.5t-152 71v-261h-140v705h140v-57q51 72 152 72zM324 110q53 0 87.5 40.5t34.5 104.5t-34.5 104.5t-87.5 40.5t-87.5 -40.5t-34.5 -104.5t34.5 -104.5t87.5 -40.5z" />
    <glyph glyph-name="q" unicode="q" horiz-adv-x="619" 
d="M417 505h140v-705h-140v245q-53 -55 -143 -55q-107 0 -173 74t-66 192q0 117 65.5 190.5t173.5 73.5q89 0 143 -54v39zM296 110q53 0 87 41t34 105q0 63 -34 103.5t-87 40.5t-87 -40.5t-34 -103.5q0 -64 34 -105t87 -41z" />
    <glyph glyph-name="r" unicode="r" horiz-adv-x="414" 
d="M326 517q44 0 76 -21l-47 -115q-22 9 -46 9q-107 0 -107 -159v-231h-140v505h140v-74q39 86 124 86z" />
    <glyph glyph-name="s" unicode="s" horiz-adv-x="492" 
d="M238 -10q-83 0 -138 39.5t-70 111.5l105 34q26 -80 113 -80q36 0 56 12t20 33q0 20 -20 32t-50.5 16.5t-65.5 14t-65.5 23.5t-50.5 47.5t-20 83.5q0 75 57 119t147 44q71 0 120.5 -36.5t65.5 -98.5l-107 -35q-24 67 -91 67q-29 0 -47.5 -12.5t-18.5 -31.5q0 -22 20.5 -35
t51 -17t66 -13.5t66 -23t51 -46t20.5 -81.5q0 -76 -59.5 -121.5t-155.5 -45.5z" />
    <glyph glyph-name="t" unicode="t" horiz-adv-x="406" 
d="M327 125l69 -81q-54 -54 -148 -54q-75 0 -115 40.5t-40 115.5v239h-78v120h78v114l140 60v-174h132v-120h-132v-224q0 -54 45 -54q22 0 49 18z" />
    <glyph glyph-name="u" unicode="u" horiz-adv-x="591" 
d="M389 505h140v-505h-140v82q-54 -92 -158 -92q-80 0 -130.5 53.5t-50.5 143.5v318h140v-299q0 -43 22.5 -69.5t61.5 -26.5q48 0 81.5 39t33.5 117v239z" />
    <glyph glyph-name="v" unicode="v" horiz-adv-x="543" 
d="M390 505h143l-197 -505h-130l-196 505h146l118 -339z" />
    <glyph glyph-name="w" unicode="w" horiz-adv-x="787" 
d="M641 505h136l-147 -505h-132l-108 344l-100 -344h-133l-147 505h138l87 -326l90 326h139l97 -329z" />
    <glyph glyph-name="x" unicode="x" horiz-adv-x="524" 
d="M512 0h-153l-104 153l-95 -153h-148l170 263l-164 242h153l97 -144l89 144h149l-163 -254z" />
    <glyph glyph-name="y" unicode="y" horiz-adv-x="543" 
d="M390 505h143l-275 -705h-141l92 219l-199 486h144l124 -327z" />
    <glyph glyph-name="z" unicode="z" horiz-adv-x="491" 
d="M207 120h249v-120h-421v111l244 274h-242v120h412v-116z" />
    <glyph glyph-name="braceleft" unicode="{" horiz-adv-x="331" 
d="M238 384q0 -90 -61 -115q61 -25 61 -115v-317q0 -18 5.5 -27.5t25.5 -9.5h42v-107h-80q-59 0 -91.5 33t-32.5 97v323q0 43 -8.5 58t-38.5 15h-25v100h25q30 0 38.5 15t8.5 58v284q0 64 32.5 97t91.5 33h80v-106h-42q-20 0 -25.5 -9.5t-5.5 -27.5v-279z" />
    <glyph glyph-name="bar" unicode="|" horiz-adv-x="305" 
d="M80 -200v900h145v-900h-145z" />
    <glyph glyph-name="braceright" unicode="}" horiz-adv-x="331" 
d="M271 319h25v-100h-25q-30 0 -38.5 -15t-8.5 -58v-323q0 -64 -32.5 -97t-91.5 -33h-80v107h42q20 0 25.5 9.5t5.5 27.5v317q0 90 61 115q-61 25 -61 115v279q0 18 -5.5 27.5t-25.5 9.5h-42v106h80q59 0 91.5 -33t32.5 -97v-284q0 -43 8.5 -58t38.5 -15z" />
    <glyph glyph-name="asciitilde" unicode="~" horiz-adv-x="576" 
d="M377 264q-34 0 -70 18.5t-64 37t-43 18.5q-38 0 -53 -69h-107q9 87 48.5 138t111.5 51q35 0 70.5 -18.5t63 -37t41.5 -18.5q21 0 32.5 16.5t19.5 52.5h109q-9 -87 -48.5 -138t-110.5 -51z" />
    <glyph glyph-name="uni00A0" unicode="&#xa0;" horiz-adv-x="210" 
 />
    <glyph glyph-name="exclamdown" unicode="&#xa1;" horiz-adv-x="255" 
d="M55 438v142h146v-142h-146zM50 -120l27 492h101l27 -492h-155z" />
    <glyph glyph-name="sterling" unicode="&#xa3;" horiz-adv-x="610" 
d="M452 212l128 -34q-32 -178 -237 -178h-317v125q56 0 91 28t35 76q0 27 -14 58h-109v114h54q-15 45 -15 96q0 96 63 154.5t169 58.5q94 0 155.5 -47.5t79.5 -136.5l-130 -34q-25 94 -101 94q-42 0 -66.5 -25t-24.5 -65q0 -44 19 -95h179v-114h-138q2 -18 2 -28
q0 -75 -49 -129h130q74 0 96 82z" />
    <glyph glyph-name="yen" unicode="&#xa5;" horiz-adv-x="669" 
d="M659 700l-204 -338h131v-92h-179v-64h179v-92h-179v-114h-145v114h-178v92h178v64h-178v92h130l-204 338h162l167 -283l160 283h160z" />
    <glyph glyph-name="brokenbar" unicode="&#xa6;" horiz-adv-x="305" 
d="M80 350v350h145v-350h-145zM225 150v-350h-145v350h145z" />
    <glyph glyph-name="section" unicode="&#xa7;" horiz-adv-x="540" 
d="M413 189q101 -35 101 -133q0 -80 -63.5 -123t-181.5 -43q-97 0 -160 36t-83 103l112 34q29 -69 135 -69q53 0 82 15t29 42q0 22 -24.5 35t-60.5 18t-79 16t-79 25.5t-60.5 50t-24.5 86.5q0 85 87 132q-97 37 -97 136q0 80 59.5 122.5t170.5 42.5q87 0 144 -32.5t75 -90.5
l-108 -38q-27 58 -114 58q-97 0 -97 -58q0 -28 34 -42.5t82 -22t96 -20.5t82 -49t34 -96q0 -40 -23.5 -76t-67.5 -59zM173 304q0 -19 8.5 -33.5t19 -23.5t32.5 -16.5t37.5 -11t44.5 -8.5q72 30 72 90q0 23 -11 38.5t-33 25t-44.5 14.5t-54.5 11q-5 1 -7 1q-64 -30 -64 -87z
" />
    <glyph glyph-name="dieresis" unicode="&#xa8;" horiz-adv-x="386" 
d="M40 560v131h129v-131h-129zM217 560v131h129v-131h-129z" />
    <glyph glyph-name="copyright" unicode="&#xa9;" horiz-adv-x="777" 
d="M389 -9q-154 0 -256.5 103t-102.5 257t102.5 256.5t256.5 102.5t256 -102.5t102 -256.5q0 -155 -102 -257.5t-256 -102.5zM389 68q118 0 197 80.5t79 202.5q0 121 -79 201.5t-197 80.5q-119 0 -198 -80.5t-79 -201.5t79 -202t198 -81zM389 158q-82 0 -134 53t-52 136
q0 86 53 140.5t135 54.5q60 0 104 -32t62 -86l-92 -29q-24 60 -77 60q-37 0 -61 -29.5t-24 -75.5t24.5 -75.5t63.5 -29.5q53 0 77 60l90 -29q-19 -54 -64 -86t-105 -32z" />
    <glyph glyph-name="ordfeminine" unicode="&#xaa;" horiz-adv-x="470" 
d="M224 750q85 0 135.5 -47t50.5 -124v-257h-98v57q-39 -65 -123 -65q-62 0 -100.5 34t-38.5 89q0 99 142 123l111 18q-2 37 -25 58.5t-60 21.5q-39 0 -62 -19t-37 -59l-84 25q12 65 63 105t126 40zM213 388q40 0 65 29t25 73v15l-78 -15q-68 -14 -68 -55q0 -22 15.5 -34.5
t40.5 -12.5z" />
    <glyph glyph-name="guillemotleft" unicode="&#xab;" horiz-adv-x="480" 
d="M224 161l-184 126v127l184 126v-124l-95 -66l95 -65v-124zM440 161l-184 126v127l184 126v-124l-95 -66l95 -65v-124z" />
    <glyph glyph-name="logicalnot" unicode="&#xac;" horiz-adv-x="600" 
d="M50 410h500v-264h-130v144h-370v120z" />
    <glyph glyph-name="uni00AD" unicode="&#xad;" horiz-adv-x="410" 
d="M65 206v130h280v-130h-280z" />
    <glyph glyph-name="registered" unicode="&#xae;" horiz-adv-x="490" 
d="M245 715q88 0 146.5 -59t58.5 -148q0 -88 -58.5 -147t-146.5 -59t-146.5 59t-58.5 147q0 89 58.5 148t146.5 59zM245 345q68 0 113.5 47t45.5 117t-45.5 116.5t-113.5 46.5t-113.5 -46.5t-45.5 -116.5t45.5 -117t113.5 -47zM301 500q21 -13 26 -39l11 -58h-53l-7 44
q-3 21 -10.5 29t-26.5 8h-23v-81h-52v213h94q35 0 55 -16t20 -45q0 -41 -34 -55zM218 524h34q29 0 29 26t-29 26h-34v-52z" />
    <glyph glyph-name="macron" unicode="&#xaf;" horiz-adv-x="345" 
d="M40 560v100h265v-100h-265z" />
    <glyph glyph-name="degree" unicode="&#xb0;" horiz-adv-x="428" 
d="M214 362q-73 0 -123.5 50.5t-50.5 123.5q0 72 50.5 123t123.5 51q72 0 123 -51t51 -123q0 -73 -51 -123.5t-123 -50.5zM214 468q27 0 46.5 20t19.5 48t-19.5 48t-46.5 20q-28 0 -47 -20t-19 -48q0 -29 19 -48.5t47 -19.5z" />
    <glyph glyph-name="plusminus" unicode="&#xb1;" horiz-adv-x="600" 
d="M365 460h185v-120h-185v-160h-130v160h-185v120h185v160h130v-160zM50 0v120h500v-120h-500z" />
    <glyph glyph-name="uni00B2" unicode="&#xb2;" horiz-adv-x="431" 
d="M216 373h175v-93h-345v84l89 45q149 75 149 149q0 27 -18.5 43t-50.5 16q-33 0 -52 -16.5t-19 -43.5q0 -12 5 -29l-90 -29q-14 30 -14 60q0 69 47.5 110t127.5 41q76 0 122 -39.5t46 -104.5q0 -114 -172 -193z" />
    <glyph glyph-name="uni00B3" unicode="&#xb3;" horiz-adv-x="413" 
d="M294 502q42 -11 65.5 -38.5t23.5 -66.5q0 -56 -48.5 -89.5t-130.5 -33.5q-76 0 -122.5 31.5t-56.5 87.5l98 16q22 -45 83 -45q34 0 54 12.5t20 34.5q0 44 -80 44h-35v84h26q72 0 72 44q0 17 -16 28t-41 11q-55 0 -71 -54l-93 12q11 62 53 96t114 34q71 0 113.5 -32.5
t42.5 -86.5q0 -68 -71 -89z" />
    <glyph glyph-name="acute" unicode="&#xb4;" horiz-adv-x="281" 
d="M40 560l54 140h147l-97 -140h-104z" />
    <glyph glyph-name="uni00B5" unicode="&#xb5;" horiz-adv-x="603" 
d="M401 505h140v-505h-140v81q-51 -91 -138 -91q-33 0 -61 14v-204h-140v705h140v-299q0 -43 22.5 -69.5t61.5 -26.5q48 0 81.5 39t33.5 117v239z" />
    <glyph glyph-name="paragraph" unicode="&#xb6;" horiz-adv-x="618" 
d="M370 0v172q-158 0 -244 70.5t-86 194.5q0 123 86.5 193t243.5 70h178v-700h-55v648h-68v-648h-55z" />
    <glyph glyph-name="periodcentered" unicode="&#xb7;" horiz-adv-x="327" 
d="M164 187q-47 0 -80.5 33.5t-33.5 80.5t33.5 80t80.5 33q46 0 79.5 -33t33.5 -80t-33 -80.5t-80 -33.5z" />
    <glyph glyph-name="cedilla" unicode="&#xb8;" horiz-adv-x="311" 
d="M176 -36q37 3 66 -18.5t29 -62.5q0 -47 -32 -69.5t-79 -22.5q-66 0 -120 38l28 48q40 -27 80 -27q41 0 41 31q0 23 -26 29t-46 -2l-20 33l45 70h63z" />
    <glyph glyph-name="uni00B9" unicode="&#xb9;" horiz-adv-x="296" 
d="M152 700h82v-420h-103v282q-39 -30 -111 -35v98q53 5 84.5 22t47.5 53z" />
    <glyph glyph-name="ordmasculine" unicode="&#xba;" horiz-adv-x="513" 
d="M255 314q-94 0 -157 61.5t-63 154.5q0 94 63.5 157t157.5 63q95 0 158.5 -62t63.5 -155q0 -94 -64 -156.5t-159 -62.5zM257 405q50 0 82 35t32 90q0 57 -33 93t-83 36q-51 0 -82 -35.5t-31 -91.5t32 -91.5t83 -35.5z" />
    <glyph glyph-name="guillemotright" unicode="&#xbb;" horiz-adv-x="480" 
d="M40 161v124l95 65l-95 66v124l184 -126v-127zM256 161v124l95 65l-95 66v124l184 -126v-127z" />
    <glyph glyph-name="onequarter" unicode="&#xbc;" horiz-adv-x="942" 
d="M131 280v282q-39 -30 -111 -35v98q53 5 84.5 22t47.5 53h82v-420h-103zM628 700h137l-510 -700h-139zM929 170v-91h-58v-79h-100v79h-223v85l218 256h105v-250h58zM775 298l-108 -128h108v128z" />
    <glyph glyph-name="onehalf" unicode="&#xbd;" horiz-adv-x="1016" 
d="M131 280v282q-39 -30 -111 -35v98q53 5 84.5 22t47.5 53h82v-420h-103zM628 700h137l-510 -700h-139zM801 93h175v-93h-345v84l89 45q149 75 149 149q0 27 -18.5 43t-50.5 16q-33 0 -52 -16.5t-19 -43.5q0 -12 5 -29l-90 -29q-14 30 -14 60q0 69 47.5 110t127.5 41
q76 0 122 -39.5t46 -104.5q0 -114 -172 -193z" />
    <glyph glyph-name="threequarters" unicode="&#xbe;" horiz-adv-x="1059" 
d="M383 397q0 -56 -48.5 -89.5t-130.5 -33.5q-76 0 -122.5 31.5t-56.5 87.5l98 16q22 -45 83 -45q34 0 54 12.5t20 34.5q0 44 -80 44h-35v84h26q72 0 72 44q0 17 -16 28t-41 11q-55 0 -71 -54l-93 12q11 62 53 96t114 34q71 0 113.5 -32.5t42.5 -86.5q0 -68 -71 -89
q42 -11 65.5 -38.5t23.5 -66.5zM745 700h137l-510 -700h-139zM1046 170v-91h-58v-79h-100v79h-223v85l218 256h105v-250h58zM892 298l-108 -128h108v128z" />
    <glyph glyph-name="questiondown" unicode="&#xbf;" horiz-adv-x="574" 
d="M208 457v144h146v-144h-146zM279 -114q-110 0 -175.5 60t-65.5 160q0 34 8 60.5t28 50t36.5 38t49.5 39.5q37 28 48 44.5t14 49.5h119q5 -43 -11.5 -75t-58.5 -66q-49 -39 -70.5 -70.5t-21.5 -67.5q0 -43 27.5 -69.5t73.5 -26.5q52 0 83 27.5t31 73.5q0 37 -10 61l121 50
q27 -48 27 -105q0 -107 -69 -170.5t-184 -63.5z" />
    <glyph glyph-name="Agrave" unicode="&#xc0;" horiz-adv-x="724" 
d="M412 750h-104l-97 138h147zM551 0l-48 134h-284l-49 -134h-152l268 700h151l269 -700h-155zM263 254h197l-97 274z" />
    <glyph glyph-name="Aacute" unicode="&#xc1;" horiz-adv-x="724" 
d="M513 888l-97 -138h-104l54 138h147zM551 0l-48 134h-284l-49 -134h-152l268 700h151l269 -700h-155zM263 254h197l-97 274z" />
    <glyph glyph-name="Acircumflex" unicode="&#xc2;" horiz-adv-x="724" 
d="M364 809l-64 -59h-93l85 138h140l85 -138h-93zM551 0l-48 134h-284l-49 -134h-152l268 700h151l269 -700h-155zM263 254h197l-97 274z" />
    <glyph glyph-name="Atilde" unicode="&#xc3;" horiz-adv-x="724" 
d="M317 791q-35 0 -38 -41h-72q0 65 25.5 102t70.5 37q28 0 58 -22.5t45 -22.5q17 0 27.5 11.5t11.5 30.5h72q0 -65 -25.5 -102.5t-69.5 -37.5q-31 0 -60.5 22.5t-44.5 22.5zM551 0l-48 134h-284l-49 -134h-152l268 700h151l269 -700h-155zM263 254h197l-97 274z" />
    <glyph glyph-name="Adieresis" unicode="&#xc4;" horiz-adv-x="724" 
d="M333 881v-131h-129v131h129zM520 881v-131h-129v131h129zM551 0l-48 134h-284l-49 -134h-152l268 700h151l269 -700h-155zM263 254h197l-97 274z" />
    <glyph glyph-name="Aring" unicode="&#xc5;" horiz-adv-x="724" 
d="M362 747q-40 0 -68 27t-28 65t28 65t68 27t68 -27t28 -65t-28 -65t-68 -27zM362 876q-16 0 -26.5 -10.5t-10.5 -26.5t10.5 -26.5t26.5 -10.5t26.5 10.5t10.5 26.5t-10.5 26.5t-26.5 10.5zM551 0l-48 134h-284l-49 -134h-152l268 700h151l269 -700h-155zM263 254h197
l-97 274z" />
    <glyph glyph-name="AE" unicode="&#xc6;" horiz-adv-x="1020" 
d="M985 570h-348v-150h310v-130h-310v-160h348v-130h-493v130h-243l-76 -130h-163l410 700h565v-130zM324 260h168v288z" />
    <glyph glyph-name="Ccedilla" unicode="&#xc7;" horiz-adv-x="738" 
d="M707 226q-27 -100 -100 -162t-177 -72l-17 -28q37 3 66 -18.5t29 -62.5q0 -47 -32 -69.5t-79 -22.5q-66 0 -120 38l28 48q41 -27 80 -27q41 0 41 31q0 23 -26 29t-46 -2l-20 33l32 50q-148 8 -237 107t-89 252q0 160 99 262.5t249 102.5q117 0 198 -59.5t112 -169.5
l-128 -40q-45 139 -182 139q-89 0 -146 -65.5t-57 -170.5q0 -101 57.5 -165t151.5 -64q141 0 189 142z" />
    <glyph glyph-name="Egrave" unicode="&#xc8;" horiz-adv-x="597" 
d="M354 750h-104l-97 138h147zM562 570h-347v-150h310v-130h-310v-160h347v-130h-492v700h492v-130z" />
    <glyph glyph-name="Eacute" unicode="&#xc9;" horiz-adv-x="597" 
d="M455 888l-97 -138h-104l54 138h147zM562 570h-347v-150h310v-130h-310v-160h347v-130h-492v700h492v-130z" />
    <glyph glyph-name="Ecircumflex" unicode="&#xca;" horiz-adv-x="597" 
d="M306 809l-64 -59h-93l85 138h140l85 -138h-93zM562 570h-347v-150h310v-130h-310v-160h347v-130h-492v700h492v-130z" />
    <glyph glyph-name="Edieresis" unicode="&#xcb;" horiz-adv-x="597" 
d="M275 881v-131h-129v131h129zM462 881v-131h-129v131h129zM562 570h-347v-150h310v-130h-310v-160h347v-130h-492v700h492v-130z" />
    <glyph glyph-name="Igrave" unicode="&#xcc;" horiz-adv-x="285" 
d="M89 750l-97 138h147l54 -138h-104zM70 0v700h145v-700h-145z" />
    <glyph glyph-name="Iacute" unicode="&#xcd;" horiz-adv-x="285" 
d="M93 750l54 138h147l-97 -138h-104zM70 0v700h145v-700h-145z" />
    <glyph glyph-name="Icircumflex" unicode="&#xce;" horiz-adv-x="285" 
d="M-12 750l85 138h140l85 -138h-93l-60 59l-64 -59h-93zM70 0v700h145v-700h-145z" />
    <glyph glyph-name="Idieresis" unicode="&#xcf;" horiz-adv-x="285" 
d="M-15 750v131h129v-131h-129zM172 750v131h129v-131h-129zM70 0v700h145v-700h-145z" />
    <glyph glyph-name="Eth" unicode="&#xd0;" horiz-adv-x="767" 
d="M372 700q167 0 261 -93t94 -257t-94 -257t-261 -93h-264v290h-91v120h91v290h264zM371 130q98 0 154.5 59.5t56.5 160.5t-56.5 160.5t-154.5 59.5h-118v-160h155v-120h-155v-160h118z" />
    <glyph glyph-name="Ntilde" unicode="&#xd1;" horiz-adv-x="724" 
d="M317 791q-35 0 -38 -41h-72q0 65 25.5 102t70.5 37q28 0 58 -22.5t45 -22.5q17 0 27.5 11.5t11.5 30.5h72q0 -65 -25.5 -102.5t-69.5 -37.5q-31 0 -60.5 22.5t-44.5 22.5zM514 700h140v-700h-176l-268 521v-521h-140v700h192l252 -493v493z" />
    <glyph glyph-name="Ograve" unicode="&#xd2;" horiz-adv-x="794" 
d="M343 750l-97 138h147l54 -138h-104zM397 -10q-157 0 -257 101.5t-100 260.5q0 160 100 261.5t257 101.5t257 -101.5t100 -261.5q0 -159 -100 -260.5t-257 -101.5zM397 120q96 0 154 64.5t58 167.5q0 104 -58 168.5t-154 64.5t-154 -64.5t-58 -168.5q0 -103 58 -167.5
t154 -64.5z" />
    <glyph glyph-name="Oacute" unicode="&#xd3;" horiz-adv-x="794" 
d="M347 750l54 138h147l-97 -138h-104zM397 -10q-157 0 -257 101.5t-100 260.5q0 160 100 261.5t257 101.5t257 -101.5t100 -261.5q0 -159 -100 -260.5t-257 -101.5zM397 120q96 0 154 64.5t58 167.5q0 104 -58 168.5t-154 64.5t-154 -64.5t-58 -168.5q0 -103 58 -167.5
t154 -64.5z" />
    <glyph glyph-name="Ocircumflex" unicode="&#xd4;" horiz-adv-x="794" 
d="M242 750l85 138h140l85 -138h-93l-60 59l-64 -59h-93zM397 -10q-157 0 -257 101.5t-100 260.5q0 160 100 261.5t257 101.5t257 -101.5t100 -261.5q0 -159 -100 -260.5t-257 -101.5zM397 120q96 0 154 64.5t58 167.5q0 104 -58 168.5t-154 64.5t-154 -64.5t-58 -168.5
q0 -103 58 -167.5t154 -64.5z" />
    <glyph glyph-name="Otilde" unicode="&#xd5;" horiz-adv-x="794" 
d="M457 746q-31 0 -60.5 22.5t-44.5 22.5q-35 0 -38 -41h-72q0 65 25.5 102t70.5 37q28 0 58 -22.5t45 -22.5q17 0 27.5 11.5t11.5 30.5h72q0 -65 -25.5 -102.5t-69.5 -37.5zM397 -10q-157 0 -257 101.5t-100 260.5q0 160 100 261.5t257 101.5t257 -101.5t100 -261.5
q0 -159 -100 -260.5t-257 -101.5zM397 120q96 0 154 64.5t58 167.5q0 104 -58 168.5t-154 64.5t-154 -64.5t-58 -168.5q0 -103 58 -167.5t154 -64.5z" />
    <glyph glyph-name="Odieresis" unicode="&#xd6;" horiz-adv-x="794" 
d="M239 750v131h129v-131h-129zM426 750v131h129v-131h-129zM397 -10q-157 0 -257 101.5t-100 260.5q0 160 100 261.5t257 101.5t257 -101.5t100 -261.5q0 -159 -100 -260.5t-257 -101.5zM397 120q96 0 154 64.5t58 167.5q0 104 -58 168.5t-154 64.5t-154 -64.5t-58 -168.5
q0 -103 58 -167.5t154 -64.5z" />
    <glyph glyph-name="multiply" unicode="&#xd7;" horiz-adv-x="600" 
d="M537 502l-152 -152l152 -152l-85 -85l-152 152l-152 -152l-85 85l152 152l-152 152l85 85l152 -152l152 152z" />
    <glyph glyph-name="Oslash" unicode="&#xd8;" horiz-adv-x="794" 
d="M668 598q86 -100 86 -246q0 -159 -100 -260.5t-257 -101.5q-98 0 -174 41l-60 -77l-93 76l58 74q-88 99 -88 248q0 160 100 261.5t257 101.5q98 0 177 -42l57 73l93 -76zM185 352q0 -76 33 -133l272 347q-43 19 -93 19q-96 0 -154 -64.5t-58 -168.5zM397 120
q96 0 154 64.5t58 167.5q0 75 -31 131l-271 -345q41 -18 90 -18z" />
    <glyph glyph-name="Ugrave" unicode="&#xd9;" horiz-adv-x="698" 
d="M295 750l-97 138h147l54 -138h-104zM349 -10q-134 0 -211.5 80t-77.5 218v412h145v-409q0 -79 39 -125t105 -46t105 46t39 125v409h145v-412q0 -138 -77.5 -218t-211.5 -80z" />
    <glyph glyph-name="Uacute" unicode="&#xda;" horiz-adv-x="698" 
d="M299 750l54 138h147l-97 -138h-104zM349 -10q-134 0 -211.5 80t-77.5 218v412h145v-409q0 -79 39 -125t105 -46t105 46t39 125v409h145v-412q0 -138 -77.5 -218t-211.5 -80z" />
    <glyph glyph-name="Ucircumflex" unicode="&#xdb;" horiz-adv-x="698" 
d="M194 750l85 138h140l85 -138h-93l-60 59l-64 -59h-93zM349 -10q-134 0 -211.5 80t-77.5 218v412h145v-409q0 -79 39 -125t105 -46t105 46t39 125v409h145v-412q0 -138 -77.5 -218t-211.5 -80z" />
    <glyph glyph-name="Udieresis" unicode="&#xdc;" horiz-adv-x="698" 
d="M191 750v131h129v-131h-129zM378 750v131h129v-131h-129zM349 -10q-134 0 -211.5 80t-77.5 218v412h145v-409q0 -79 39 -125t105 -46t105 46t39 125v409h145v-412q0 -138 -77.5 -218t-211.5 -80z" />
    <glyph glyph-name="Yacute" unicode="&#xdd;" horiz-adv-x="675" 
d="M489 888l-97 -138h-104l54 138h147zM500 700h160l-250 -428v-272h-145v271l-250 429h162l164 -293z" />
    <glyph glyph-name="Thorn" unicode="&#xde;" horiz-adv-x="648" 
d="M382 580q110 0 175.5 -59.5t65.5 -158.5q0 -105 -68 -168.5t-183 -63.5h-157v-130h-145v700h145v-120h167zM375 260q48 0 75.5 26t27.5 69q0 44 -27.5 69.5t-75.5 25.5h-160v-190h160z" />
    <glyph glyph-name="germandbls" unicode="&#xdf;" horiz-adv-x="562" 
d="M371 398q71 -18 111 -69t40 -123q0 -99 -61.5 -152.5t-174.5 -53.5h-31v125h22q47 0 75.5 26.5t28.5 70.5q0 46 -26.5 72.5t-70.5 26.5h-29v120h17q29 0 47 20t18 53q0 31 -18 51t-47 20q-33 0 -52.5 -21.5t-19.5 -57.5v-506h-140v492q0 99 57.5 158.5t154.5 59.5
q93 0 148 -48t55 -128q0 -51 -29 -86t-75 -50z" />
    <glyph glyph-name="agrave" unicode="&#xe0;" horiz-adv-x="543" 
d="M323 560h-104l-97 140h147zM265 520q104 0 163.5 -57t59.5 -151v-312h-128v62q-43 -72 -137 -72q-74 0 -119.5 42.5t-45.5 109.5q0 119 162 147l128 22q-2 40 -26.5 64.5t-63.5 24.5q-41 0 -66 -22t-41 -67l-109 33q14 79 74.5 127.5t148.5 48.5zM256 86q40 0 66 32.5
t26 79.5v18l-87 -17q-63 -13 -63 -60q0 -24 16 -38.5t42 -14.5z" />
    <glyph glyph-name="aacute" unicode="&#xe1;" horiz-adv-x="543" 
d="M422 700l-97 -140h-104l54 140h147zM265 520q104 0 163.5 -57t59.5 -151v-312h-128v62q-43 -72 -137 -72q-74 0 -119.5 42.5t-45.5 109.5q0 119 162 147l128 22q-2 40 -26.5 64.5t-63.5 24.5q-41 0 -66 -22t-41 -67l-109 33q14 79 74.5 127.5t148.5 48.5zM256 86
q40 0 66 32.5t26 79.5v18l-87 -17q-63 -13 -63 -60q0 -24 16 -38.5t42 -14.5z" />
    <glyph glyph-name="acircumflex" unicode="&#xe2;" horiz-adv-x="543" 
d="M272 615l-60 -55h-102l86 142h152l86 -142h-102zM265 520q104 0 163.5 -57t59.5 -151v-312h-128v62q-43 -72 -137 -72q-74 0 -119.5 42.5t-45.5 109.5q0 119 162 147l128 22q-2 40 -26.5 64.5t-63.5 24.5q-41 0 -66 -22t-41 -67l-109 33q14 79 74.5 127.5t148.5 48.5z
M256 86q40 0 66 32.5t26 79.5v18l-87 -17q-63 -13 -63 -60q0 -24 16 -38.5t42 -14.5z" />
    <glyph glyph-name="atilde" unicode="&#xe3;" horiz-adv-x="543" 
d="M222 601q-31 0 -34 -41h-75q0 63 25.5 101.5t70.5 38.5q27 0 61.5 -22t50.5 -22q30 0 33 41h76q0 -62 -25.5 -101t-69.5 -39q-27 0 -62 22t-51 22zM265 520q104 0 163.5 -57t59.5 -151v-312h-128v62q-43 -72 -137 -72q-74 0 -119.5 42.5t-45.5 109.5q0 119 162 147
l128 22q-2 40 -26.5 64.5t-63.5 24.5q-41 0 -66 -22t-41 -67l-109 33q14 79 74.5 127.5t148.5 48.5zM256 86q40 0 66 32.5t26 79.5v18l-87 -17q-63 -13 -63 -60q0 -24 16 -38.5t42 -14.5z" />
    <glyph glyph-name="adieresis" unicode="&#xe4;" horiz-adv-x="543" 
d="M248 691v-131h-129v131h129zM425 691v-131h-129v131h129zM265 520q104 0 163.5 -57t59.5 -151v-312h-128v62q-43 -72 -137 -72q-74 0 -119.5 42.5t-45.5 109.5q0 119 162 147l128 22q-2 40 -26.5 64.5t-63.5 24.5q-41 0 -66 -22t-41 -67l-109 33q14 79 74.5 127.5
t148.5 48.5zM256 86q40 0 66 32.5t26 79.5v18l-87 -17q-63 -13 -63 -60q0 -24 16 -38.5t42 -14.5z" />
    <glyph glyph-name="aring" unicode="&#xe5;" horiz-adv-x="543" 
d="M272 557q-40 0 -68 27t-28 65t28 65t68 27t68 -27t28 -65t-28 -65t-68 -27zM272 686q-16 0 -26.5 -10.5t-10.5 -26.5t10.5 -26.5t26.5 -10.5t26.5 10.5t10.5 26.5t-10.5 26.5t-26.5 10.5zM265 520q104 0 163.5 -57t59.5 -151v-312h-128v62q-43 -72 -137 -72
q-74 0 -119.5 42.5t-45.5 109.5q0 119 162 147l128 22q-2 40 -26.5 64.5t-63.5 24.5q-41 0 -66 -22t-41 -67l-109 33q14 79 74.5 127.5t148.5 48.5zM256 86q40 0 66 32.5t26 79.5v18l-87 -17q-63 -13 -63 -60q0 -24 16 -38.5t42 -14.5z" />
    <glyph glyph-name="ae" unicode="&#xe6;" horiz-adv-x="874" 
d="M602 520q119 0 187 -93.5t44 -212.5h-348q4 -50 39 -80t87 -30q77 0 126 62l86 -65q-34 -52 -89.5 -81.5t-124.5 -29.5q-126 0 -194 101q-51 -101 -192 -101q-74 0 -119.5 42.5t-45.5 109.5q0 119 162 147l128 22q-2 40 -26.5 64.5t-63.5 24.5q-41 0 -66 -22t-41 -67
l-109 33q14 79 74.5 127.5t148.5 48.5q113 0 167 -80q67 80 170 80zM600 412q-45 0 -76.5 -29t-35.5 -77h218q-4 48 -33 77t-73 29zM256 86q40 0 66 32.5t26 79.5v18l-87 -17q-63 -13 -63 -60q0 -24 16 -38.5t42 -14.5z" />
    <glyph glyph-name="ccedilla" unicode="&#xe7;" horiz-adv-x="551" 
d="M521 143q-25 -65 -78.5 -105.5t-128.5 -46.5l-16 -27q37 3 66 -18.5t29 -62.5q0 -47 -32 -69.5t-79 -22.5q-66 0 -120 38l28 48q40 -27 80 -27q41 0 41 31q0 23 -26 29t-46 -2l-20 33l33 51q-101 13 -159 81.5t-58 171.5q0 121 72 198t185 77q88 0 146 -42t79 -117
l-121 -35q-28 74 -104 74q-51 0 -84 -41t-33 -104q0 -64 33 -104.5t84 -40.5q42 0 70 17.5t49 54.5z" />
    <glyph glyph-name="egrave" unicode="&#xe8;" horiz-adv-x="559" 
d="M341 560h-104l-97 140h147zM287 520q119 0 187 -93.5t44 -212.5h-348q4 -50 39 -80t87 -30q77 0 126 62l86 -65q-34 -52 -89.5 -81.5t-124.5 -29.5q-111 0 -185 72t-74 188q0 118 71 194t181 76zM285 412q-45 0 -76.5 -29t-35.5 -77h218q-4 48 -33 77t-73 29z" />
    <glyph glyph-name="eacute" unicode="&#xe9;" horiz-adv-x="559" 
d="M440 700l-97 -140h-104l54 140h147zM287 520q119 0 187 -93.5t44 -212.5h-348q4 -50 39 -80t87 -30q77 0 126 62l86 -65q-34 -52 -89.5 -81.5t-124.5 -29.5q-111 0 -185 72t-74 188q0 118 71 194t181 76zM285 412q-45 0 -76.5 -29t-35.5 -77h218q-4 48 -33 77t-73 29z
" />
    <glyph glyph-name="ecircumflex" unicode="&#xea;" horiz-adv-x="559" 
d="M290 615l-60 -55h-102l86 142h152l86 -142h-102zM287 520q119 0 187 -93.5t44 -212.5h-348q4 -50 39 -80t87 -30q77 0 126 62l86 -65q-34 -52 -89.5 -81.5t-124.5 -29.5q-111 0 -185 72t-74 188q0 118 71 194t181 76zM285 412q-45 0 -76.5 -29t-35.5 -77h218
q-4 48 -33 77t-73 29z" />
    <glyph glyph-name="edieresis" unicode="&#xeb;" horiz-adv-x="559" 
d="M266 691v-131h-129v131h129zM443 691v-131h-129v131h129zM287 520q119 0 187 -93.5t44 -212.5h-348q4 -50 39 -80t87 -30q77 0 126 62l86 -65q-34 -52 -89.5 -81.5t-124.5 -29.5q-111 0 -185 72t-74 188q0 118 71 194t181 76zM285 412q-45 0 -76.5 -29t-35.5 -77h218
q-4 48 -33 77t-73 29z" />
    <glyph glyph-name="igrave" unicode="&#xec;" horiz-adv-x="264" 
d="M79 560l-97 140h147l54 -140h-104zM62 0v505h140v-505h-140z" />
    <glyph glyph-name="iacute" unicode="&#xed;" horiz-adv-x="264" 
d="M81 560l54 140h147l-97 -140h-104zM62 0v505h140v-505h-140z" />
    <glyph glyph-name="icircumflex" unicode="&#xee;" horiz-adv-x="264" 
d="M-30 560l86 142h152l86 -142h-102l-60 55l-60 -55h-102zM62 0v505h140v-505h-140z" />
    <glyph glyph-name="idieresis" unicode="&#xef;" horiz-adv-x="264" 
d="M-21 560v131h129v-131h-129zM156 560v131h129v-131h-129zM62 0v505h140v-505h-140z" />
    <glyph glyph-name="eth" unicode="&#xf0;" horiz-adv-x="575" 
d="M413 579q122 -125 122 -301q0 -131 -69.5 -209.5t-185.5 -78.5q-112 0 -178.5 59.5t-66.5 159.5q0 99 61 160t152 61q79 0 133 -46q-21 78 -77 130l-97 -57l-46 74l65 39q-39 20 -79 32l40 106q85 -24 153 -69l113 68l48 -76zM282 120q49 0 78.5 26t29.5 70
q0 43 -28.5 68.5t-76.5 25.5q-50 0 -80 -26t-30 -70q0 -43 29 -68.5t78 -25.5z" />
    <glyph glyph-name="ntilde" unicode="&#xf1;" horiz-adv-x="598" 
d="M278 601q-31 0 -34 -41h-75q0 63 25.5 101.5t70.5 38.5q27 0 61.5 -22t50.5 -22q30 0 33 41h76q0 -62 -25.5 -101t-69.5 -39q-27 0 -62 22t-51 22zM356 520q83 0 135 -54t52 -145v-321h-140v302q0 45 -23.5 71.5t-64.5 26.5q-47 0 -80 -36.5t-33 -109.5v-254h-140v505
h140v-67q53 82 154 82z" />
    <glyph glyph-name="ograve" unicode="&#xf2;" horiz-adv-x="594" 
d="M244 560l-97 140h147l54 -140h-104zM296 -10q-111 0 -186 75t-75 188t75.5 190t187.5 77q111 0 186 -75t75 -188t-75.5 -190t-187.5 -77zM299 110q54 0 87 40t33 104q0 65 -34.5 105.5t-88.5 40.5t-87.5 -40t-33.5 -104q0 -65 34.5 -105.5t89.5 -40.5z" />
    <glyph glyph-name="oacute" unicode="&#xf3;" horiz-adv-x="594" 
d="M246 560l54 140h147l-97 -140h-104zM296 -10q-111 0 -186 75t-75 188t75.5 190t187.5 77q111 0 186 -75t75 -188t-75.5 -190t-187.5 -77zM299 110q54 0 87 40t33 104q0 65 -34.5 105.5t-88.5 40.5t-87.5 -40t-33.5 -104q0 -65 34.5 -105.5t89.5 -40.5z" />
    <glyph glyph-name="ocircumflex" unicode="&#xf4;" horiz-adv-x="594" 
d="M135 560l86 142h152l86 -142h-102l-60 55l-60 -55h-102zM296 -10q-111 0 -186 75t-75 188t75.5 190t187.5 77q111 0 186 -75t75 -188t-75.5 -190t-187.5 -77zM299 110q54 0 87 40t33 104q0 65 -34.5 105.5t-88.5 40.5t-87.5 -40t-33.5 -104q0 -65 34.5 -105.5t89.5 -40.5
z" />
    <glyph glyph-name="otilde" unicode="&#xf5;" horiz-adv-x="594" 
d="M360 557q-27 0 -62 22t-51 22q-31 0 -34 -41h-75q0 63 25.5 101.5t70.5 38.5q27 0 61.5 -22t50.5 -22q30 0 33 41h76q0 -62 -25.5 -101t-69.5 -39zM296 -10q-111 0 -186 75t-75 188t75.5 190t187.5 77q111 0 186 -75t75 -188t-75.5 -190t-187.5 -77zM299 110q54 0 87 40
t33 104q0 65 -34.5 105.5t-88.5 40.5t-87.5 -40t-33.5 -104q0 -65 34.5 -105.5t89.5 -40.5z" />
    <glyph glyph-name="odieresis" unicode="&#xf6;" horiz-adv-x="594" 
d="M144 560v131h129v-131h-129zM321 560v131h129v-131h-129zM296 -10q-111 0 -186 75t-75 188t75.5 190t187.5 77q111 0 186 -75t75 -188t-75.5 -190t-187.5 -77zM299 110q54 0 87 40t33 104q0 65 -34.5 105.5t-88.5 40.5t-87.5 -40t-33.5 -104q0 -65 34.5 -105.5
t89.5 -40.5z" />
    <glyph glyph-name="divide" unicode="&#xf7;" horiz-adv-x="600" 
d="M233 496v130h134v-130h-134zM50 290v120h500v-120h-500zM233 74v130h134v-130h-134z" />
    <glyph glyph-name="oslash" unicode="&#xf8;" horiz-adv-x="594" 
d="M502 425q57 -71 57 -168q0 -113 -75.5 -190t-187.5 -77q-69 0 -128 31l-49 -59l-79 62l51 62q-56 72 -56 167q0 113 75.5 190t187.5 77q69 0 128 -31l49 59l78 -62zM175 256q0 -32 9 -59l160 193q-21 10 -48 10q-54 0 -87.5 -40t-33.5 -104zM299 110q54 0 87 40t33 104
q0 34 -9 59l-160 -193q25 -10 49 -10z" />
    <glyph glyph-name="ugrave" unicode="&#xf9;" horiz-adv-x="591" 
d="M341 560h-104l-97 140h147zM389 505h140v-505h-140v82q-54 -92 -158 -92q-80 0 -130.5 53.5t-50.5 143.5v318h140v-299q0 -43 22.5 -69.5t61.5 -26.5q48 0 81.5 39t33.5 117v239z" />
    <glyph glyph-name="uacute" unicode="&#xfa;" horiz-adv-x="591" 
d="M440 700l-97 -140h-104l54 140h147zM389 505h140v-505h-140v82q-54 -92 -158 -92q-80 0 -130.5 53.5t-50.5 143.5v318h140v-299q0 -43 22.5 -69.5t61.5 -26.5q48 0 81.5 39t33.5 117v239z" />
    <glyph glyph-name="ucircumflex" unicode="&#xfb;" horiz-adv-x="591" 
d="M290 615l-60 -55h-102l86 142h152l86 -142h-102zM389 505h140v-505h-140v82q-54 -92 -158 -92q-80 0 -130.5 53.5t-50.5 143.5v318h140v-299q0 -43 22.5 -69.5t61.5 -26.5q48 0 81.5 39t33.5 117v239z" />
    <glyph glyph-name="udieresis" unicode="&#xfc;" horiz-adv-x="591" 
d="M266 691v-131h-129v131h129zM443 691v-131h-129v131h129zM389 505h140v-505h-140v82q-54 -92 -158 -92q-80 0 -130.5 53.5t-50.5 143.5v318h140v-299q0 -43 22.5 -69.5t61.5 -26.5q48 0 81.5 39t33.5 117v239z" />
    <glyph glyph-name="yacute" unicode="&#xfd;" horiz-adv-x="543" 
d="M425 700l-97 -140h-104l54 140h147zM390 505h143l-275 -705h-141l92 219l-199 486h144l124 -327z" />
    <glyph glyph-name="thorn" unicode="&#xfe;" horiz-adv-x="622" 
d="M348 520q108 0 173.5 -74t65.5 -191q0 -118 -66 -191.5t-173 -73.5q-90 0 -143 55v-245h-140v900h140v-234q54 54 143 54zM326 110q53 0 87 40.5t34 104.5t-34 104.5t-87 40.5t-87 -40.5t-34 -104.5t34 -104.5t87 -40.5z" />
    <glyph glyph-name="ydieresis" unicode="&#xff;" horiz-adv-x="543" 
d="M251 691v-131h-129v131h129zM428 691v-131h-129v131h129zM390 505h143l-275 -705h-141l92 219l-199 486h144l124 -327z" />
    <glyph glyph-name="Amacron" unicode="&#x100;" horiz-adv-x="724" 
d="M501 850v-100h-279v100h279zM551 0l-48 134h-284l-49 -134h-152l268 700h151l269 -700h-155zM263 254h197l-97 274z" />
    <glyph glyph-name="amacron" unicode="&#x101;" horiz-adv-x="543" 
d="M404 660v-100h-265v100h265zM265 520q104 0 163.5 -57t59.5 -151v-312h-128v62q-43 -72 -137 -72q-74 0 -119.5 42.5t-45.5 109.5q0 119 162 147l128 22q-2 40 -26.5 64.5t-63.5 24.5q-41 0 -66 -22t-41 -67l-109 33q14 79 74.5 127.5t148.5 48.5zM256 86q40 0 66 32.5
t26 79.5v18l-87 -17q-63 -13 -63 -60q0 -24 16 -38.5t42 -14.5z" />
    <glyph glyph-name="Abreve" unicode="&#x102;" horiz-adv-x="724" 
d="M362 747q-65 0 -100.5 36.5t-35.5 102.5h83q3 -51 53 -51t53 51h83q0 -66 -35.5 -102.5t-100.5 -36.5zM551 0l-48 134h-284l-49 -134h-152l268 700h151l269 -700h-155zM263 254h197l-97 274z" />
    <glyph glyph-name="abreve" unicode="&#x103;" horiz-adv-x="543" 
d="M272 557q-65 0 -100.5 36.5t-35.5 102.5h83q5 -51 53 -51t53 51h83q0 -66 -35.5 -102.5t-100.5 -36.5zM265 520q104 0 163.5 -57t59.5 -151v-312h-128v62q-43 -72 -137 -72q-74 0 -119.5 42.5t-45.5 109.5q0 119 162 147l128 22q-2 40 -26.5 64.5t-63.5 24.5
q-41 0 -66 -22t-41 -67l-109 33q14 79 74.5 127.5t148.5 48.5zM256 86q40 0 66 32.5t26 79.5v18l-87 -17q-63 -13 -63 -60q0 -24 16 -38.5t42 -14.5z" />
    <glyph glyph-name="Aogonek" unicode="&#x104;" horiz-adv-x="724" 
d="M585 -136q23 0 43 9l22 -56q-34 -27 -85 -27q-44 0 -69.5 23.5t-25.5 61.5q0 33 22 67.5t61 57.5h-2l-48 134h-284l-49 -134h-152l268 700h151l269 -700h-65q-88 -53 -88 -105q0 -31 32 -31zM263 254h197l-97 274z" />
    <glyph glyph-name="aogonek" unicode="&#x105;" horiz-adv-x="543" 
d="M448 0q-88 -53 -88 -105q0 -31 32 -31q23 0 43 9l22 -56q-34 -27 -85 -27q-44 0 -69.5 23.5t-25.5 61.5q0 33 22 67.5t61 57.5v62q-43 -72 -137 -72q-74 0 -119.5 42.5t-45.5 109.5q0 119 162 147l128 22q-2 40 -26.5 64.5t-63.5 24.5q-41 0 -66 -22t-41 -67l-109 33
q14 79 74.5 127.5t148.5 48.5q104 0 163.5 -57t59.5 -151v-312h-40zM256 86q40 0 66 32.5t26 79.5v18l-87 -17q-63 -13 -63 -60q0 -24 16 -38.5t42 -14.5z" />
    <glyph glyph-name="Cacute" unicode="&#x106;" horiz-adv-x="738" 
d="M343 750l54 138h147l-97 -138h-104zM391 -10q-158 0 -254.5 100.5t-96.5 259.5q0 160 99 262.5t249 102.5q117 0 198 -59.5t112 -169.5l-128 -40q-45 139 -182 139q-89 0 -146 -65.5t-57 -170.5q0 -101 57.5 -165t151.5 -64q141 0 189 142l124 -36q-29 -109 -113 -172.5
t-203 -63.5z" />
    <glyph glyph-name="cacute" unicode="&#x107;" horiz-adv-x="551" 
d="M227 560l54 140h147l-97 -140h-104zM292 -10q-118 0 -187.5 70.5t-69.5 184.5q0 121 72 198t185 77q88 0 146 -42t79 -117l-121 -35q-28 74 -104 74q-51 0 -84 -41t-33 -104q0 -64 33 -104.5t84 -40.5q42 0 70 17.5t49 54.5l110 -39q-26 -70 -86 -111.5t-143 -41.5z" />
    <glyph glyph-name="Cdotaccent" unicode="&#x10a;" horiz-adv-x="738" 
d="M319 750v131h147v-131h-147zM391 -10q-158 0 -254.5 100.5t-96.5 259.5q0 160 99 262.5t249 102.5q117 0 198 -59.5t112 -169.5l-128 -40q-45 139 -182 139q-89 0 -146 -65.5t-57 -170.5q0 -101 57.5 -165t151.5 -64q141 0 189 142l124 -36q-29 -109 -113 -172.5
t-203 -63.5z" />
    <glyph glyph-name="cdotaccent" unicode="&#x10b;" horiz-adv-x="551" 
d="M204 560v131h147v-131h-147zM292 -10q-118 0 -187.5 70.5t-69.5 184.5q0 121 72 198t185 77q88 0 146 -42t79 -117l-121 -35q-28 74 -104 74q-51 0 -84 -41t-33 -104q0 -64 33 -104.5t84 -40.5q42 0 70 17.5t49 54.5l110 -39q-26 -70 -86 -111.5t-143 -41.5z" />
    <glyph glyph-name="Ccaron" unicode="&#x10c;" horiz-adv-x="738" 
d="M323 750l-85 138h93l62 -59l62 59h93l-85 -138h-140zM391 -10q-158 0 -254.5 100.5t-96.5 259.5q0 160 99 262.5t249 102.5q117 0 198 -59.5t112 -169.5l-128 -40q-45 139 -182 139q-89 0 -146 -65.5t-57 -170.5q0 -101 57.5 -165t151.5 -64q141 0 189 142l124 -36
q-29 -109 -113 -172.5t-203 -63.5z" />
    <glyph glyph-name="ccaron" unicode="&#x10d;" horiz-adv-x="551" 
d="M202 560l-86 142h102l60 -55l60 55h102l-86 -142h-152zM292 -10q-118 0 -187.5 70.5t-69.5 184.5q0 121 72 198t185 77q88 0 146 -42t79 -117l-121 -35q-28 74 -104 74q-51 0 -84 -41t-33 -104q0 -64 33 -104.5t84 -40.5q42 0 70 17.5t49 54.5l110 -39
q-26 -70 -86 -111.5t-143 -41.5z" />
    <glyph glyph-name="Dcaron" unicode="&#x10e;" horiz-adv-x="729" 
d="M406 750h-140l-85 138h93l62 -59l62 59h93zM334 700q167 0 261 -93t94 -257t-94 -257t-261 -93h-264v700h264zM333 130q98 0 154.5 59.5t56.5 160.5t-56.5 160.5t-154.5 59.5h-118v-440h118z" />
    <glyph glyph-name="dcaron" unicode="&#x10f;" horiz-adv-x="622" 
d="M417 456v244h140v-700h-140v55q-48 -65 -143 -65q-107 0 -173 73.5t-66 191.5q0 117 65.5 191t173.5 74q95 0 143 -64zM595 700h106l-32 -163h-74v163zM296 110q53 0 87 40.5t34 104.5t-34 104.5t-87 40.5t-87 -40.5t-34 -104.5t34 -104.5t87 -40.5z" />
    <glyph glyph-name="Dcroat" unicode="&#x110;" horiz-adv-x="767" 
d="M372 700q167 0 261 -93t94 -257t-94 -257t-261 -93h-264v290h-91v120h91v290h264zM371 130q98 0 154.5 59.5t56.5 160.5t-56.5 160.5t-154.5 59.5h-118v-160h155v-120h-155v-160h118z" />
    <glyph glyph-name="dcroat" unicode="&#x111;" horiz-adv-x="622" 
d="M627 632v-90h-70v-542h-140v55q-48 -65 -143 -65q-107 0 -173 73.5t-66 191.5q0 117 65.5 191t173.5 74q95 0 143 -64v86h-115v90h115v68h140v-68h70zM296 110q53 0 87 40.5t34 104.5t-34 104.5t-87 40.5t-87 -40.5t-34 -104.5t34 -104.5t87 -40.5z" />
    <glyph glyph-name="Emacron" unicode="&#x112;" horiz-adv-x="597" 
d="M443 850v-100h-279v100h279zM562 570h-347v-150h310v-130h-310v-160h347v-130h-492v700h492v-130z" />
    <glyph glyph-name="emacron" unicode="&#x113;" horiz-adv-x="559" 
d="M422 660v-100h-265v100h265zM287 520q119 0 187 -93.5t44 -212.5h-348q4 -50 39 -80t87 -30q77 0 126 62l86 -65q-34 -52 -89.5 -81.5t-124.5 -29.5q-111 0 -185 72t-74 188q0 118 71 194t181 76zM285 412q-45 0 -76.5 -29t-35.5 -77h218q-4 48 -33 77t-73 29z" />
    <glyph glyph-name="Edotaccent" unicode="&#x116;" horiz-adv-x="597" 
d="M377 881v-131h-147v131h147zM562 570h-347v-150h310v-130h-310v-160h347v-130h-492v700h492v-130z" />
    <glyph glyph-name="edotaccent" unicode="&#x117;" horiz-adv-x="559" 
d="M363 691v-131h-147v131h147zM287 520q119 0 187 -93.5t44 -212.5h-348q4 -50 39 -80t87 -30q77 0 126 62l86 -65q-34 -52 -89.5 -81.5t-124.5 -29.5q-111 0 -185 72t-74 188q0 118 71 194t181 76zM285 412q-45 0 -76.5 -29t-35.5 -77h218q-4 48 -33 77t-73 29z" />
    <glyph glyph-name="Eogonek" unicode="&#x118;" horiz-adv-x="597" 
d="M549 -127l22 -56q-34 -27 -85 -27q-44 0 -69.5 23.5t-25.5 61.5q0 33 22 67.5t61 57.5h-404v700h492v-130h-347v-150h310v-130h-310v-160h347v-130q-88 -53 -88 -105q0 -31 32 -31q23 0 43 9z" />
    <glyph glyph-name="eogonek" unicode="&#x119;" horiz-adv-x="559" 
d="M287 520q119 0 187 -93.5t44 -212.5h-348q4 -50 39 -80t87 -30q77 0 126 62l86 -65q-51 -78 -142 -102q-87 -53 -87 -104q0 -31 32 -31q23 0 43 9l22 -56q-34 -27 -85 -27q-44 0 -69.5 23.5t-25.5 61.5q0 30 18.5 61.5t51.5 54.5q-101 10 -166 80.5t-65 178.5
q0 118 71 194t181 76zM285 412q-45 0 -76.5 -29t-35.5 -77h218q-4 48 -33 77t-73 29z" />
    <glyph glyph-name="Ecaron" unicode="&#x11a;" horiz-adv-x="597" 
d="M374 750h-140l-85 138h93l62 -59l62 59h93zM562 570h-347v-150h310v-130h-310v-160h347v-130h-492v700h492v-130z" />
    <glyph glyph-name="ecaron" unicode="&#x11b;" horiz-adv-x="559" 
d="M366 560h-152l-86 142h102l60 -55l60 55h102zM287 520q119 0 187 -93.5t44 -212.5h-348q4 -50 39 -80t87 -30q77 0 126 62l86 -65q-34 -52 -89.5 -81.5t-124.5 -29.5q-111 0 -185 72t-74 188q0 118 71 194t181 76zM285 412q-45 0 -76.5 -29t-35.5 -77h218q-4 48 -33 77
t-73 29z" />
    <glyph glyph-name="Gbreve" unicode="&#x11e;" horiz-adv-x="754" 
d="M394 747q-65 0 -100.5 36.5t-35.5 102.5h83q3 -51 53 -51t53 51h83q0 -66 -35.5 -102.5t-100.5 -36.5zM372 258v117h321v-375h-119v74q-63 -84 -197 -84q-140 0 -238.5 98.5t-98.5 258.5q0 164 99 266t249 102q109 0 188.5 -53t117.5 -149l-128 -47q-51 119 -179 119
q-88 0 -145 -65t-57 -171q0 -101 57.5 -165t153.5 -64q71 0 117.5 36.5t51.5 101.5h-193z" />
    <glyph glyph-name="gbreve" unicode="&#x11f;" horiz-adv-x="617" 
d="M300 557q-65 0 -100.5 36.5t-35.5 102.5h83q5 -51 53 -51t53 51h83q0 -66 -35.5 -102.5t-100.5 -36.5zM415 505h140v-447q0 -123 -77 -195.5t-201 -72.5q-93 0 -160 46t-91 123l110 40q42 -89 146 -89q63 0 98 34t35 101v24q-52 -60 -139 -60q-102 0 -171.5 74t-69.5 182
q0 107 69 181t172 74q85 0 139 -62v47zM295 129q52 0 85 38t33 97q0 60 -33 98t-85 38t-85 -38t-33 -98q0 -59 33 -97t85 -38z" />
    <glyph glyph-name="Gdotaccent" unicode="&#x120;" horiz-adv-x="754" 
d="M467 881v-131h-147v131h147zM372 258v117h321v-375h-119v74q-63 -84 -197 -84q-140 0 -238.5 98.5t-98.5 258.5q0 164 99 266t249 102q109 0 188.5 -53t117.5 -149l-128 -47q-51 119 -179 119q-88 0 -145 -65t-57 -171q0 -101 57.5 -165t153.5 -64q71 0 117.5 36.5
t51.5 101.5h-193z" />
    <glyph glyph-name="gdotaccent" unicode="&#x121;" horiz-adv-x="617" 
d="M373 691v-131h-147v131h147zM415 505h140v-447q0 -123 -77 -195.5t-201 -72.5q-93 0 -160 46t-91 123l110 40q42 -89 146 -89q63 0 98 34t35 101v24q-52 -60 -139 -60q-102 0 -171.5 74t-69.5 182q0 107 69 181t172 74q85 0 139 -62v47zM295 129q52 0 85 38t33 97
q0 60 -33 98t-85 38t-85 -38t-33 -98q0 -59 33 -97t85 -38z" />
    <glyph glyph-name="uni0122" unicode="&#x122;" horiz-adv-x="754" 
d="M372 258v117h321v-375h-119v74q-63 -84 -197 -84q-140 0 -238.5 98.5t-98.5 258.5q0 164 99 266t249 102q109 0 188.5 -53t117.5 -149l-128 -47q-51 119 -179 119q-88 0 -145 -65t-57 -171q0 -101 57.5 -165t153.5 -64q71 0 117.5 36.5t51.5 101.5h-193zM306 -136v95h139
v-89q0 -50 -24.5 -77t-70.5 -27q-56 0 -82 31l27 37q20 -16 46 -16q41 0 41 40v6h-76z" />
    <glyph glyph-name="uni0123" unicode="&#x123;" horiz-adv-x="617" 
d="M370 655v-95h-139v89q0 50 24.5 77t70.5 27q56 0 82 -31l-27 -37q-20 16 -46 16q-41 0 -41 -40v-6h76zM415 505h140v-447q0 -123 -77 -195.5t-201 -72.5q-93 0 -160 46t-91 123l110 40q42 -89 146 -89q63 0 98 34t35 101v24q-52 -60 -139 -60q-102 0 -171.5 74t-69.5 182
q0 107 69 181t172 74q85 0 139 -62v47zM295 129q52 0 85 38t33 97q0 60 -33 98t-85 38t-85 -38t-33 -98q0 -59 33 -97t85 -38z" />
    <glyph glyph-name="Hbar" unicode="&#x126;" horiz-adv-x="733" 
d="M729 624v-120h-66v-504h-145v290h-303v-290h-145v504h-65v120h65v76h145v-76h303v76h145v-76h66zM518 420v84h-303v-84h303z" />
    <glyph glyph-name="hbar" unicode="&#x127;" horiz-adv-x="601" 
d="M362 520q85 0 134.5 -56t49.5 -143v-321h-140v302q0 45 -23.5 71.5t-64.5 26.5q-47 0 -80 -36.5t-33 -109.5v-254h-140v542h-68v90h68v68h140v-68h117v-90h-117v-107q55 85 157 85z" />
    <glyph glyph-name="Imacron" unicode="&#x12a;" horiz-adv-x="285" 
d="M3 750v100h279v-100h-279zM70 0v700h145v-700h-145z" />
    <glyph glyph-name="imacron" unicode="&#x12b;" horiz-adv-x="264" 
d="M-1 560v100h265v-100h-265zM62 0v505h140v-505h-140z" />
    <glyph glyph-name="Iogonek" unicode="&#x12e;" horiz-adv-x="285" 
d="M202 -127l22 -56q-34 -27 -85 -27q-44 0 -69.5 23.5t-25.5 61.5q0 33 22 67.5t61 57.5h-57v700h145v-700q-88 -53 -88 -105q0 -31 32 -31q23 0 43 9z" />
    <glyph glyph-name="iogonek" unicode="&#x12f;" horiz-adv-x="264" 
d="M205 710v-131h-147v131h147zM189 -127l22 -56q-34 -27 -85 -27q-44 0 -69.5 23.5t-25.5 61.5q0 33 22 67.5t61 57.5h-52v505h140v-505q-88 -53 -88 -105q0 -31 32 -31q23 0 43 9z" />
    <glyph glyph-name="Idotaccent" unicode="&#x130;" horiz-adv-x="285" 
d="M69 750v131h147v-131h-147zM70 0v700h145v-700h-145z" />
    <glyph glyph-name="dotlessi" unicode="&#x131;" horiz-adv-x="264" 
d="M62 0v505h140v-505h-140z" />
    <glyph glyph-name="uni0136" unicode="&#x136;" horiz-adv-x="684" 
d="M410 427l256 -427h-174l-185 314l-92 -102v-212h-145v700h145v-295l262 295h183zM281 -136v95h139v-89q0 -50 -24.5 -77t-70.5 -27q-56 0 -82 31l27 37q20 -16 46 -16q41 0 41 40v6h-76z" />
    <glyph glyph-name="uni0137" unicode="&#x137;" horiz-adv-x="575" 
d="M369 310l196 -310h-162l-127 208l-71 -78v-130h-140v700h140v-391l175 196h168zM221 -136v95h139v-89q0 -50 -24.5 -77t-70.5 -27q-56 0 -82 31l27 37q20 -16 46 -16q41 0 41 40v6h-76z" />
    <glyph glyph-name="Lacute" unicode="&#x139;" horiz-adv-x="589" 
d="M294 888l-97 -138h-104l54 138h147zM215 130h344v-130h-489v700h145v-570z" />
    <glyph glyph-name="lacute" unicode="&#x13a;" horiz-adv-x="270" 
d="M84 755l54 140h147l-97 -140h-104zM65 0v700h140v-700h-140z" />
    <glyph glyph-name="uni013B" unicode="&#x13b;" horiz-adv-x="589" 
d="M215 130h344v-130h-489v700h145v-570zM224 -136v95h139v-89q0 -50 -24.5 -77t-70.5 -27q-56 0 -82 31l27 37q20 -16 46 -16q41 0 41 40v6h-76z" />
    <glyph glyph-name="uni013C" unicode="&#x13c;" horiz-adv-x="270" 
d="M205 700v-700h-140v700h140zM67 -41h139v-89q0 -50 -24.5 -77t-70.5 -27q-56 0 -82 31l27 37q20 -16 46 -16q41 0 41 40v6h-76v95z" />
    <glyph glyph-name="Lcaron" unicode="&#x13d;" horiz-adv-x="589" 
d="M215 130h344v-130h-489v700h145v-570zM380 700l-32 -163h-74v163h106z" />
    <glyph glyph-name="lcaron" unicode="&#x13e;" horiz-adv-x="270" 
d="M65 0v700h140v-700h-140zM243 537v163h106l-32 -163h-74z" />
    <glyph glyph-name="Lslash" unicode="&#x141;" horiz-adv-x="589" 
d="M215 130h344v-130h-489v272l-67 -32v137l67 32v291h145v-222l150 72v-137l-150 -72v-211z" />
    <glyph glyph-name="lslash" unicode="&#x142;" horiz-adv-x="300" 
d="M297 532v-137l-77 -37v-358h-140v291l-77 -37v137l77 37v272h140v-205z" />
    <glyph glyph-name="Nacute" unicode="&#x143;" horiz-adv-x="724" 
d="M513 888l-97 -138h-104l54 138h147zM514 700h140v-700h-176l-268 521v-521h-140v700h192l252 -493v493z" />
    <glyph glyph-name="nacute" unicode="&#x144;" horiz-adv-x="598" 
d="M478 700l-97 -140h-104l54 140h147zM356 520q83 0 135 -54t52 -145v-321h-140v302q0 45 -23.5 71.5t-64.5 26.5q-47 0 -80 -36.5t-33 -109.5v-254h-140v505h140v-67q53 82 154 82z" />
    <glyph glyph-name="uni0145" unicode="&#x145;" horiz-adv-x="724" 
d="M514 700h140v-700h-176l-268 521v-521h-140v700h192l252 -493v493zM294 -136v95h139v-89q0 -50 -24.5 -77t-70.5 -27q-56 0 -82 31l27 37q20 -16 46 -16q41 0 41 40v6h-76z" />
    <glyph glyph-name="uni0146" unicode="&#x146;" horiz-adv-x="598" 
d="M356 520q83 0 135 -54t52 -145v-321h-140v302q0 45 -23.5 71.5t-64.5 26.5q-47 0 -80 -36.5t-33 -109.5v-254h-140v505h140v-67q53 82 154 82zM235 -136v95h139v-89q0 -50 -24.5 -77t-70.5 -27q-56 0 -82 31l27 37q20 -16 46 -16q41 0 41 40v6h-76z" />
    <glyph glyph-name="Ncaron" unicode="&#x147;" horiz-adv-x="724" 
d="M432 750h-140l-85 138h93l62 -59l62 59h93zM514 700h140v-700h-176l-268 521v-521h-140v700h192l252 -493v493z" />
    <glyph glyph-name="ncaron" unicode="&#x148;" horiz-adv-x="598" 
d="M404 560h-152l-86 142h102l60 -55l60 55h102zM356 520q83 0 135 -54t52 -145v-321h-140v302q0 45 -23.5 71.5t-64.5 26.5q-47 0 -80 -36.5t-33 -109.5v-254h-140v505h140v-67q53 82 154 82z" />
    <glyph glyph-name="Eng" unicode="&#x14a;" horiz-adv-x="724" 
d="M514 700h140v-714q0 -88 -52 -142.5t-140 -54.5q-73 0 -137 42l47 101q42 -23 75 -23q69 0 69 82v9l-306 532v-532h-140v700h191l253 -442v442z" />
    <glyph glyph-name="eng" unicode="&#x14b;" horiz-adv-x="605" 
d="M356 520q83 0 135 -54t52 -145v-358q0 -78 -47.5 -125.5t-125.5 -47.5q-100 0 -144 70l84 68q21 -21 43 -21q23 0 36.5 15t13.5 40v340q0 45 -23.5 71.5t-64.5 26.5q-47 0 -80 -36.5t-33 -110.5v-253h-140v505h140v-68q53 83 154 83z" />
    <glyph glyph-name="Omacron" unicode="&#x14c;" horiz-adv-x="794" 
d="M257 750v100h279v-100h-279zM397 -10q-157 0 -257 101.5t-100 260.5q0 160 100 261.5t257 101.5t257 -101.5t100 -261.5q0 -159 -100 -260.5t-257 -101.5zM397 120q96 0 154 64.5t58 167.5q0 104 -58 168.5t-154 64.5t-154 -64.5t-58 -168.5q0 -103 58 -167.5t154 -64.5z
" />
    <glyph glyph-name="omacron" unicode="&#x14d;" horiz-adv-x="594" 
d="M164 560v100h265v-100h-265zM296 -10q-111 0 -186 75t-75 188t75.5 190t187.5 77q111 0 186 -75t75 -188t-75.5 -190t-187.5 -77zM299 110q54 0 87 40t33 104q0 65 -34.5 105.5t-88.5 40.5t-87.5 -40t-33.5 -104q0 -65 34.5 -105.5t89.5 -40.5z" />
    <glyph glyph-name="Ohungarumlaut" unicode="&#x150;" horiz-adv-x="794" 
d="M266 750l42 139h137l-86 -139h-93zM429 750l43 139h136l-85 -139h-94zM397 -10q-157 0 -257 101.5t-100 260.5q0 160 100 261.5t257 101.5t257 -101.5t100 -261.5q0 -159 -100 -260.5t-257 -101.5zM397 120q96 0 154 64.5t58 167.5q0 104 -58 168.5t-154 64.5t-154 -64.5
t-58 -168.5q0 -103 58 -167.5t154 -64.5z" />
    <glyph glyph-name="ohungarumlaut" unicode="&#x151;" horiz-adv-x="594" 
d="M166 560l42 140h137l-86 -140h-93zM329 560l43 140h136l-85 -140h-94zM296 -10q-111 0 -186 75t-75 188t75.5 190t187.5 77q111 0 186 -75t75 -188t-75.5 -190t-187.5 -77zM299 110q54 0 87 40t33 104q0 65 -34.5 105.5t-88.5 40.5t-87.5 -40t-33.5 -104
q0 -65 34.5 -105.5t89.5 -40.5z" />
    <glyph glyph-name="OE" unicode="&#x152;" horiz-adv-x="982" 
d="M947 570h-347v-150h310v-130h-310v-160h347v-130h-539q-178 0 -273 90.5t-95 259.5t95 259.5t273 90.5h539v-130zM185 350q0 -106 59 -163t168 -57h43v440h-43q-109 0 -168 -57t-59 -163z" />
    <glyph glyph-name="oe" unicode="&#x153;" horiz-adv-x="948" 
d="M676 520q119 0 187 -93.5t44 -212.5h-348q4 -50 39 -80t87 -30q77 0 126 62l86 -65q-34 -52 -89.5 -81.5t-124.5 -29.5q-126 0 -194 101q-72 -101 -193 -101q-111 0 -186 75t-75 188t75.5 190t187.5 77q121 0 193 -101q66 101 185 101zM674 412q-45 0 -76.5 -29
t-35.5 -77h218q-4 48 -33 77t-73 29zM299 110q54 0 87 40t33 104q0 65 -34.5 105.5t-88.5 40.5t-87.5 -40t-33.5 -104q0 -65 34.5 -105.5t89.5 -40.5z" />
    <glyph glyph-name="Racute" unicode="&#x154;" horiz-adv-x="666" 
d="M475 888l-97 -138h-104l54 138h147zM586 190l40 -190h-146l-29 146q-13 64 -46 90t-100 26h-90v-262h-145v700h308q107 0 171.5 -56.5t64.5 -149.5q0 -66 -34.5 -114.5t-94.5 -71.5q43 -13 67 -41t34 -77zM215 388h159q42 0 68.5 26t26.5 65t-26.5 65t-68.5 26h-159v-182
z" />
    <glyph glyph-name="racute" unicode="&#x155;" horiz-adv-x="414" 
d="M388 700l-97 -140h-104l54 140h147zM326 517q44 0 76 -21l-47 -115q-22 9 -46 9q-107 0 -107 -159v-231h-140v505h140v-74q39 86 124 86z" />
    <glyph glyph-name="uni0156" unicode="&#x156;" horiz-adv-x="666" 
d="M586 190l40 -190h-146l-29 146q-13 64 -46 90t-100 26h-90v-262h-145v700h308q107 0 171.5 -56.5t64.5 -149.5q0 -66 -34.5 -114.5t-94.5 -71.5q43 -13 67 -41t34 -77zM215 388h159q42 0 68.5 26t26.5 65t-26.5 65t-68.5 26h-159v-182zM268 -136v95h139v-89
q0 -50 -24.5 -77t-70.5 -27q-56 0 -82 31l27 37q20 -16 46 -16q41 0 41 40v6h-76z" />
    <glyph glyph-name="uni0157" unicode="&#x157;" horiz-adv-x="414" 
d="M326 517q44 0 76 -21l-47 -115q-22 9 -46 9q-107 0 -107 -159v-231h-140v505h140v-74q39 86 124 86zM64 -136v95h139v-89q0 -50 -24.5 -77t-70.5 -27q-56 0 -82 31l27 37q20 -16 46 -16q41 0 41 40v6h-76z" />
    <glyph glyph-name="Rcaron" unicode="&#x158;" horiz-adv-x="666" 
d="M394 750h-140l-85 138h93l62 -59l62 59h93zM586 190l40 -190h-146l-29 146q-13 64 -46 90t-100 26h-90v-262h-145v700h308q107 0 171.5 -56.5t64.5 -149.5q0 -66 -34.5 -114.5t-94.5 -71.5q43 -13 67 -41t34 -77zM215 388h159q42 0 68.5 26t26.5 65t-26.5 65t-68.5 26
h-159v-182z" />
    <glyph glyph-name="rcaron" unicode="&#x159;" horiz-adv-x="414" 
d="M314 560h-152l-86 142h102l60 -55l60 55h102zM326 517q44 0 76 -21l-47 -115q-22 9 -46 9q-107 0 -107 -159v-231h-140v505h140v-74q39 86 124 86z" />
    <glyph glyph-name="Sacute" unicode="&#x15a;" horiz-adv-x="615" 
d="M259 750l54 138h147l-97 -138h-104zM306 -10q-115 0 -187 54.5t-92 154.5l126 38q35 -123 161 -123q60 0 97 20.5t37 56.5q0 31 -21.5 49.5t-55.5 27.5t-75.5 16t-83 19.5t-75.5 32t-55.5 60t-21.5 97.5q0 99 71 160.5t182 61.5q102 0 168 -50t89 -136l-129 -35
q-31 97 -136 97q-51 0 -80 -22.5t-29 -59.5q0 -34 29 -53.5t72.5 -25.5t94.5 -18.5t94.5 -29.5t72.5 -60t29 -109q0 -105 -77.5 -164t-204.5 -59z" />
    <glyph glyph-name="sacute" unicode="&#x15b;" horiz-adv-x="492" 
d="M200 560l54 140h147l-97 -140h-104zM238 -10q-83 0 -138 39.5t-70 111.5l105 34q26 -80 113 -80q36 0 56 12t20 33q0 20 -20 32t-50.5 16.5t-65.5 14t-65.5 23.5t-50.5 47.5t-20 83.5q0 75 57 119t147 44q71 0 120.5 -36.5t65.5 -98.5l-107 -35q-24 67 -91 67
q-29 0 -47.5 -12.5t-18.5 -31.5q0 -22 20.5 -35t51 -17t66 -13.5t66 -23t51 -46t20.5 -81.5q0 -76 -59.5 -121.5t-155.5 -45.5z" />
    <glyph glyph-name="Scedilla" unicode="&#x15e;" horiz-adv-x="615" 
d="M588 213q0 -93 -62.5 -150.5t-168.5 -69.5l-18 -29q37 3 66 -18.5t29 -62.5q0 -47 -32 -69.5t-79 -22.5q-66 0 -120 38l28 48q41 -27 80 -27q41 0 41 31q0 23 -26 29t-46 -2l-20 33l32 49q-109 4 -177 58t-88 151l126 38q35 -123 161 -123q60 0 97 20.5t37 56.5
q0 31 -21.5 49.5t-55.5 27.5t-75.5 16t-83 19.5t-75.5 32t-55.5 60t-21.5 97.5q0 99 71 160.5t182 61.5q102 0 168 -50t89 -136l-129 -35q-31 97 -136 97q-51 0 -80 -22.5t-29 -59.5q0 -34 29 -53.5t72.5 -25.5t94.5 -18.5t94.5 -29.5t72.5 -60t29 -109z" />
    <glyph glyph-name="scedilla" unicode="&#x15f;" horiz-adv-x="492" 
d="M453 157q0 -65 -44.5 -108.5t-119.5 -54.5l-18 -30q37 3 66 -18.5t29 -62.5q0 -47 -32 -69.5t-79 -22.5q-66 0 -120 38l28 48q41 -27 80 -27q41 0 41 31q0 23 -26 29t-46 -2l-20 33l32 49q-77 4 -128.5 43t-65.5 108l105 34q26 -80 113 -80q36 0 56 12t20 33q0 20 -20 32
t-50.5 16.5t-65.5 14t-65.5 23.5t-50.5 47.5t-20 83.5q0 75 57 119t147 44q71 0 120.5 -36.5t65.5 -98.5l-107 -35q-24 67 -91 67q-29 0 -47.5 -12.5t-18.5 -31.5q0 -22 20.5 -35t51 -17t66 -13.5t66 -23t51 -46t20.5 -81.5z" />
    <glyph glyph-name="Scaron" unicode="&#x160;" horiz-adv-x="615" 
d="M239 750l-85 138h93l62 -59l62 59h93l-85 -138h-140zM306 -10q-115 0 -187 54.5t-92 154.5l126 38q35 -123 161 -123q60 0 97 20.5t37 56.5q0 31 -21.5 49.5t-55.5 27.5t-75.5 16t-83 19.5t-75.5 32t-55.5 60t-21.5 97.5q0 99 71 160.5t182 61.5q102 0 168 -50t89 -136
l-129 -35q-31 97 -136 97q-51 0 -80 -22.5t-29 -59.5q0 -34 29 -53.5t72.5 -25.5t94.5 -18.5t94.5 -29.5t72.5 -60t29 -109q0 -105 -77.5 -164t-204.5 -59z" />
    <glyph glyph-name="scaron" unicode="&#x161;" horiz-adv-x="492" 
d="M175 560l-86 142h102l60 -55l60 55h102l-86 -142h-152zM238 -10q-83 0 -138 39.5t-70 111.5l105 34q26 -80 113 -80q36 0 56 12t20 33q0 20 -20 32t-50.5 16.5t-65.5 14t-65.5 23.5t-50.5 47.5t-20 83.5q0 75 57 119t147 44q71 0 120.5 -36.5t65.5 -98.5l-107 -35
q-24 67 -91 67q-29 0 -47.5 -12.5t-18.5 -31.5q0 -22 20.5 -35t51 -17t66 -13.5t66 -23t51 -46t20.5 -81.5q0 -76 -59.5 -121.5t-155.5 -45.5z" />
    <glyph glyph-name="uni0162" unicode="&#x162;" horiz-adv-x="639" 
d="M392 0h-30l-22 -36q37 3 66 -18.5t29 -62.5q0 -47 -32 -69.5t-79 -22.5q-66 0 -120 38l28 48q40 -27 80 -27q41 0 41 31q0 23 -26 29t-46 -2l-20 33l38 59h-52v570h-232v130h609v-130h-232v-570z" />
    <glyph glyph-name="uni0163" unicode="&#x163;" horiz-adv-x="406" 
d="M243 -36q37 3 66 -18.5t29 -62.5q0 -47 -32 -69.5t-79 -22.5q-66 0 -120 38l28 48q41 -27 80 -27q41 0 41 31q0 23 -26 29t-46 -2l-20 33l35 54q-106 25 -106 151v239h-78v120h78v114l140 60v-174h132v-120h-132v-224q0 -54 45 -54q22 0 49 18l69 -81q-51 -51 -137 -54z
" />
    <glyph glyph-name="Tcaron" unicode="&#x164;" horiz-adv-x="639" 
d="M390 750h-140l-85 138h93l62 -59l62 59h93zM624 700v-130h-232v-570h-145v570h-232v130h609z" />
    <glyph glyph-name="tcaron" unicode="&#x165;" horiz-adv-x="406" 
d="M377 700l-32 -163h-74v163h106zM327 125l69 -81q-54 -54 -148 -54q-75 0 -115 40.5t-40 115.5v239h-78v120h78v114l140 60v-174h132v-120h-132v-224q0 -54 45 -54q22 0 49 18z" />
    <glyph glyph-name="Tbar" unicode="&#x166;" horiz-adv-x="639" 
d="M624 570h-232v-190h123v-120h-123v-260h-145v260h-123v120h123v190h-232v130h609v-130z" />
    <glyph glyph-name="tbar" unicode="&#x167;" horiz-adv-x="406" 
d="M327 125l69 -81q-54 -54 -148 -54q-75 0 -115 40.5t-40 115.5v59h-63v90h63v90h-78v120h78v114l140 60v-174h132v-120h-132v-90h122v-90h-122v-44q0 -54 45 -54q22 0 49 18z" />
    <glyph glyph-name="Umacron" unicode="&#x16a;" horiz-adv-x="698" 
d="M209 750v100h279v-100h-279zM349 -10q-134 0 -211.5 80t-77.5 218v412h145v-409q0 -79 39 -125t105 -46t105 46t39 125v409h145v-412q0 -138 -77.5 -218t-211.5 -80z" />
    <glyph glyph-name="umacron" unicode="&#x16b;" horiz-adv-x="591" 
d="M422 660v-100h-265v100h265zM389 505h140v-505h-140v82q-54 -92 -158 -92q-80 0 -130.5 53.5t-50.5 143.5v318h140v-299q0 -43 22.5 -69.5t61.5 -26.5q48 0 81.5 39t33.5 117v239z" />
    <glyph glyph-name="Uring" unicode="&#x16e;" horiz-adv-x="698" 
d="M349 747q-40 0 -68 27t-28 65t28 65t68 27t68 -27t28 -65t-28 -65t-68 -27zM349 802q16 0 26.5 10.5t10.5 26.5t-10.5 26.5t-26.5 10.5t-26.5 -10.5t-10.5 -26.5t10.5 -26.5t26.5 -10.5zM349 -10q-134 0 -211.5 80t-77.5 218v412h145v-409q0 -79 39 -125t105 -46t105 46
t39 125v409h145v-412q0 -138 -77.5 -218t-211.5 -80z" />
    <glyph glyph-name="uring" unicode="&#x16f;" horiz-adv-x="591" 
d="M290 557q-40 0 -68 27t-28 65t28 65t68 27t68 -27t28 -65t-28 -65t-68 -27zM290 686q-16 0 -26.5 -10.5t-10.5 -26.5t10.5 -26.5t26.5 -10.5t26.5 10.5t10.5 26.5t-10.5 26.5t-26.5 10.5zM389 505h140v-505h-140v82q-54 -92 -158 -92q-80 0 -130.5 53.5t-50.5 143.5v318
h140v-299q0 -43 22.5 -69.5t61.5 -26.5q48 0 81.5 39t33.5 117v239z" />
    <glyph glyph-name="Uhungarumlaut" unicode="&#x170;" horiz-adv-x="698" 
d="M218 750l42 139h137l-86 -139h-93zM381 750l43 139h136l-85 -139h-94zM349 -10q-134 0 -211.5 80t-77.5 218v412h145v-409q0 -79 39 -125t105 -46t105 46t39 125v409h145v-412q0 -138 -77.5 -218t-211.5 -80z" />
    <glyph glyph-name="uhungarumlaut" unicode="&#x171;" horiz-adv-x="591" 
d="M338 700l-86 -140h-93l42 140h137zM416 560h-94l43 140h136zM389 505h140v-505h-140v82q-54 -92 -158 -92q-80 0 -130.5 53.5t-50.5 143.5v318h140v-299q0 -43 22.5 -69.5t61.5 -26.5q48 0 81.5 39t33.5 117v239z" />
    <glyph glyph-name="Uogonek" unicode="&#x172;" horiz-adv-x="698" 
d="M493 700h145v-412q0 -118 -57.5 -194.5t-159.5 -96.5q-83 -52 -83 -102q0 -31 32 -31q23 0 43 9l22 -56q-34 -27 -85 -27q-44 0 -69.5 23.5t-25.5 61.5q0 30 18.5 61.5t50.5 54.5q-123 8 -193.5 87t-70.5 210v412h145v-409q0 -79 39 -125t105 -46t105 46t39 125v409z" />
    <glyph glyph-name="uogonek" unicode="&#x173;" horiz-adv-x="591" 
d="M477 0q-88 -53 -88 -105q0 -31 32 -31q23 0 43 9l22 -56q-34 -27 -85 -27q-44 0 -69.5 23.5t-25.5 61.5q0 33 22 67.5t61 57.5v82q-54 -92 -158 -92q-80 0 -130.5 53.5t-50.5 143.5v318h140v-299q0 -43 22.5 -69.5t61.5 -26.5q48 0 81.5 39t33.5 117v239h140v-505h-52z
" />
    <glyph glyph-name="Wcircumflex" unicode="&#x174;" horiz-adv-x="1081" 
d="M543 809l-64 -59h-93l85 138h140l85 -138h-93zM910 700h151l-199 -700h-174l-148 532l-150 -532h-172l-198 700h158l134 -523l139 523h187l139 -530z" />
    <glyph glyph-name="wcircumflex" unicode="&#x175;" horiz-adv-x="787" 
d="M395 615l-60 -55h-102l86 142h152l86 -142h-102zM641 505h136l-147 -505h-132l-108 344l-100 -344h-133l-147 505h138l87 -326l90 326h139l97 -329z" />
    <glyph glyph-name="Ycircumflex" unicode="&#x176;" horiz-adv-x="675" 
d="M340 809l-64 -59h-93l85 138h140l85 -138h-93zM500 700h160l-250 -428v-272h-145v271l-250 429h162l164 -293z" />
    <glyph glyph-name="ycircumflex" unicode="&#x177;" horiz-adv-x="543" 
d="M275 615l-60 -55h-102l86 142h152l86 -142h-102zM390 505h143l-275 -705h-141l92 219l-199 486h144l124 -327z" />
    <glyph glyph-name="Ydieresis" unicode="&#x178;" horiz-adv-x="675" 
d="M309 881v-131h-129v131h129zM496 881v-131h-129v131h129zM500 700h160l-250 -428v-272h-145v271l-250 429h162l164 -293z" />
    <glyph glyph-name="Zacute" unicode="&#x179;" horiz-adv-x="620" 
d="M464 888l-97 -138h-104l54 138h147zM220 130h365v-130h-545v122l362 448h-360v130h541v-122z" />
    <glyph glyph-name="zacute" unicode="&#x17a;" horiz-adv-x="491" 
d="M396 700l-97 -140h-104l54 140h147zM207 120h249v-120h-421v111l244 274h-242v120h412v-116z" />
    <glyph glyph-name="Zdotaccent" unicode="&#x17b;" horiz-adv-x="620" 
d="M386 881v-131h-147v131h147zM220 130h365v-130h-545v122l362 448h-360v130h541v-122z" />
    <glyph glyph-name="zdotaccent" unicode="&#x17c;" horiz-adv-x="491" 
d="M319 691v-131h-147v131h147zM207 120h249v-120h-421v111l244 274h-242v120h412v-116z" />
    <glyph glyph-name="Zcaron" unicode="&#x17d;" horiz-adv-x="620" 
d="M383 750h-140l-85 138h93l62 -59l62 59h93zM220 130h365v-130h-545v122l362 448h-360v130h541v-122z" />
    <glyph glyph-name="zcaron" unicode="&#x17e;" horiz-adv-x="491" 
d="M322 560h-152l-86 142h102l60 -55l60 55h102zM207 120h249v-120h-421v111l244 274h-242v120h412v-116z" />
    <glyph glyph-name="florin" unicode="&#x192;" horiz-adv-x="407" 
d="M246 540v-35h118v-120h-118v-422q0 -78 -47.5 -125.5t-125.5 -47.5q-99 0 -144 70l84 68q19 -21 43 -21q22 0 36 15t14 40v423h-75v120h75v32q0 76 48 124.5t123 48.5q105 0 150 -81l-90 -57q-18 21 -44 21q-20 0 -33.5 -14.5t-13.5 -38.5z" />
    <glyph glyph-name="uni0218" unicode="&#x218;" horiz-adv-x="615" 
d="M196 509q0 -34 29 -53.5t72.5 -25.5t94.5 -18.5t94.5 -29.5t72.5 -60t29 -109q0 -105 -77.5 -164t-204.5 -59q-115 0 -187 54.5t-92 154.5l126 38q35 -123 161 -123q60 0 97 20.5t37 56.5q0 31 -21.5 49.5t-55.5 27.5t-75.5 16t-83 19.5t-75.5 32t-55.5 60t-21.5 97.5
q0 99 71 160.5t182 61.5q102 0 168 -50t89 -136l-129 -35q-31 97 -136 97q-51 0 -80 -22.5t-29 -59.5zM251 -136v95h139v-89q0 -50 -24.5 -77t-70.5 -27q-56 0 -82 31l27 37q20 -16 46 -16q41 0 41 40v6h-76z" />
    <glyph glyph-name="uni0219" unicode="&#x219;" horiz-adv-x="492" 
d="M178 373q0 -22 20.5 -35t51 -17t66 -13.5t66 -23t51 -46t20.5 -81.5q0 -76 -59.5 -121.5t-155.5 -45.5q-83 0 -138 39.5t-70 111.5l105 34q26 -80 113 -80q36 0 56 12t20 33q0 20 -20 32t-50.5 16.5t-65.5 14t-65.5 23.5t-50.5 47.5t-20 83.5q0 75 57 119t147 44
q71 0 120.5 -36.5t65.5 -98.5l-107 -35q-24 67 -91 67q-29 0 -47.5 -12.5t-18.5 -31.5zM183 -136v95h139v-89q0 -50 -24.5 -77t-70.5 -27q-56 0 -82 31l27 37q20 -16 46 -16q41 0 41 40v6h-76z" />
    <glyph glyph-name="uni021A" unicode="&#x21a;" horiz-adv-x="639" 
d="M624 700v-130h-232v-570h-145v570h-232v130h609zM252 -136v95h139v-89q0 -50 -24.5 -77t-70.5 -27q-56 0 -82 31l27 37q20 -16 46 -16q41 0 41 40v6h-76z" />
    <glyph glyph-name="uni021B" unicode="&#x21b;" horiz-adv-x="406" 
d="M248 -10q-75 0 -115 40.5t-40 115.5v239h-78v120h78v114l140 60v-174h132v-120h-132v-224q0 -54 45 -54q22 0 49 18l69 -81q-54 -54 -148 -54zM155 -136v95h139v-89q0 -50 -24.5 -77t-70.5 -27q-56 0 -82 31l27 37q20 -16 46 -16q41 0 41 40v6h-76z" />
    <glyph glyph-name="uni0237" unicode="&#x237;" horiz-adv-x="272" 
d="M37 -210q-80 0 -128 53l72 80q19 -16 39 -16q22 0 36 15t14 40v543h140v-532q0 -83 -47.5 -133t-125.5 -50z" />
    <glyph glyph-name="circumflex" unicode="&#x2c6;" horiz-adv-x="404" 
d="M40 560l86 142h152l86 -142h-102l-60 55l-60 -55h-102z" />
    <glyph glyph-name="caron" unicode="&#x2c7;" horiz-adv-x="404" 
d="M126 560l-86 142h102l60 -55l60 55h102l-86 -142h-152z" />
    <glyph glyph-name="breve" unicode="&#x2d8;" horiz-adv-x="352" 
d="M176 557q-65 0 -100.5 36.5t-35.5 102.5h83q5 -51 53 -51t53 51h83q0 -66 -35.5 -102.5t-100.5 -36.5z" />
    <glyph glyph-name="dotaccent" unicode="&#x2d9;" horiz-adv-x="227" 
d="M40 560v131h147v-131h-147z" />
    <glyph glyph-name="ring" unicode="&#x2da;" horiz-adv-x="272" 
d="M136 557q-40 0 -68 27t-28 65t28 65t68 27t68 -27t28 -65t-28 -65t-68 -27zM136 612q16 0 26.5 10.5t10.5 26.5t-10.5 26.5t-26.5 10.5t-26.5 -10.5t-10.5 -26.5t10.5 -26.5t26.5 -10.5z" />
    <glyph glyph-name="ogonek" unicode="&#x2db;" horiz-adv-x="260" 
d="M135 -210q-44 0 -69.5 23.5t-25.5 61.5q0 33 22 67.5t61 57.5h88q-88 -53 -88 -105q0 -31 32 -31q23 0 43 9l22 -56q-34 -27 -85 -27z" />
    <glyph glyph-name="tilde" unicode="&#x2dc;" horiz-adv-x="397" 
d="M262 557q-27 0 -62 22t-51 22q-31 0 -34 -41h-75q0 63 25.5 101.5t70.5 38.5q27 0 61.5 -22t50.5 -22q30 0 33 41h76q0 -62 -25.5 -101t-69.5 -39z" />
    <glyph glyph-name="hungarumlaut" unicode="&#x2dd;" horiz-adv-x="422" 
d="M40 560l42 140h137l-86 -140h-93zM203 560l43 140h136l-85 -140h-94z" />
    <glyph glyph-name="gravecomb" unicode="&#x300;" 
d="M-144 560l-97 140h147l54 -140h-104z" />
    <glyph glyph-name="acutecomb" unicode="&#x301;" 
d="M-241 560l54 140h147l-97 -140h-104z" />
    <glyph glyph-name="uni0302" unicode="&#x302;" 
d="M-364 560l86 142h152l86 -142h-102l-60 55l-60 -55h-102z" />
    <glyph glyph-name="tildecomb" unicode="&#x303;" 
d="M-135 557q-27 0 -62 22t-51 22q-31 0 -34 -41h-75q0 63 25.5 101.5t70.5 38.5q27 0 61.5 -22t50.5 -22q30 0 33 41h76q0 -62 -25.5 -101t-69.5 -39z" />
    <glyph glyph-name="uni0304" unicode="&#x304;" 
d="M-305 560v100h265v-100h-265z" />
    <glyph glyph-name="uni0306" unicode="&#x306;" 
d="M-176 557q-65 0 -100.5 36.5t-35.5 102.5h83q5 -51 53 -51t53 51h83q0 -66 -35.5 -102.5t-100.5 -36.5z" />
    <glyph glyph-name="uni0307" unicode="&#x307;" 
d="M-187 560v131h147v-131h-147z" />
    <glyph glyph-name="uni0308" unicode="&#x308;" 
d="M-346 560v131h129v-131h-129zM-169 560v131h129v-131h-129z" />
    <glyph glyph-name="uni030A" unicode="&#x30a;" 
d="M-136 557q-40 0 -68 27t-28 65t28 65t68 27t68 -27t28 -65t-28 -65t-68 -27zM-136 612q16 0 26.5 10.5t10.5 26.5t-10.5 26.5t-26.5 10.5t-26.5 -10.5t-10.5 -26.5t10.5 -26.5t26.5 -10.5z" />
    <glyph glyph-name="uni030B" unicode="&#x30b;" 
d="M-382 560l42 140h137l-86 -140h-93zM-219 560l43 140h136l-85 -140h-94z" />
    <glyph glyph-name="uni030C" unicode="&#x30c;" 
d="M-278 560l-86 142h102l60 -55l60 55h102l-86 -142h-152z" />
    <glyph glyph-name="uni0312" unicode="&#x312;" 
d="M-113 701q-41 0 -41 -40v-6h76v-95h-139v89q0 50 24.5 77t70.5 27q56 0 82 -31l-27 -37q-20 16 -46 16z" />
    <glyph glyph-name="uni0326" unicode="&#x326;" 
d="M-179 -41h139v-89q0 -50 -24.5 -77t-70.5 -27q-56 0 -82 31l27 37q20 -16 46 -16q41 0 41 40v6h-76v95z" />
    <glyph glyph-name="uni0327" unicode="&#x327;" 
d="M-135 -36q37 3 66 -18.5t29 -62.5q0 -47 -32 -69.5t-79 -22.5q-66 0 -120 38l28 48q41 -27 80 -27q41 0 41 31q0 23 -26 29t-46 -2l-20 33l45 70h63z" />
    <glyph glyph-name="uni0328" unicode="&#x328;" 
d="M-125 -210q-44 0 -69.5 23.5t-25.5 61.5q0 33 22 67.5t61 57.5h88q-88 -53 -88 -105q0 -31 32 -31q23 0 43 9l22 -56q-34 -27 -85 -27z" />
    <glyph glyph-name="uni0394" unicode="&#x394;" horiz-adv-x="724" 
d="M437 700l269 -700h-688l268 700h151zM214 120h294l-145 408z" />
    <glyph glyph-name="uni03A9" unicode="&#x3a9;" horiz-adv-x="794" 
d="M754 370q0 -80 -34 -141.5t-83 -98.5h102v-130h-306v130q78 26 127 85t49 145q0 100 -58 162.5t-154 62.5t-154 -62.5t-58 -162.5q0 -86 49 -145t127 -84v-131h-306v130h102q-49 37 -83 98.5t-34 141.5q0 146 101 245.5t256 99.5q157 0 257 -97t100 -248z" />
    <glyph glyph-name="uni03BC" unicode="&#x3bc;" horiz-adv-x="603" 
d="M401 505h140v-505h-140v81q-51 -91 -138 -91q-33 0 -61 14v-204h-140v705h140v-299q0 -43 22.5 -69.5t61.5 -26.5q48 0 81.5 39t33.5 117v239z" />
    <glyph glyph-name="pi" unicode="&#x3c0;" horiz-adv-x="632" 
d="M603 109l19 -110q-21 -9 -67 -9q-79 0 -122 40.5t-43 115.5v239h-165v-385h-140v385h-70v120h585v-120h-70v-224q0 -54 45 -54q12 0 28 2z" />
    <glyph glyph-name="Wgrave" unicode="&#x1e80;" horiz-adv-x="1081" 
d="M591 750h-104l-97 138h147zM910 700h151l-199 -700h-174l-148 532l-150 -532h-172l-198 700h158l134 -523l139 523h187l139 -530z" />
    <glyph glyph-name="wgrave" unicode="&#x1e81;" horiz-adv-x="787" 
d="M446 560h-104l-97 140h147zM641 505h136l-147 -505h-132l-108 344l-100 -344h-133l-147 505h138l87 -326l90 326h139l97 -329z" />
    <glyph glyph-name="Wacute" unicode="&#x1e82;" horiz-adv-x="1081" 
d="M692 888l-97 -138h-104l54 138h147zM910 700h151l-199 -700h-174l-148 532l-150 -532h-172l-198 700h158l134 -523l139 523h187l139 -530z" />
    <glyph glyph-name="wacute" unicode="&#x1e83;" horiz-adv-x="787" 
d="M545 700l-97 -140h-104l54 140h147zM641 505h136l-147 -505h-132l-108 344l-100 -344h-133l-147 505h138l87 -326l90 326h139l97 -329z" />
    <glyph glyph-name="Wdieresis" unicode="&#x1e84;" horiz-adv-x="1081" 
d="M512 881v-131h-129v131h129zM699 881v-131h-129v131h129zM910 700h151l-199 -700h-174l-148 532l-150 -532h-172l-198 700h158l134 -523l139 523h187l139 -530z" />
    <glyph glyph-name="wdieresis" unicode="&#x1e85;" horiz-adv-x="787" 
d="M371 691v-131h-129v131h129zM548 691v-131h-129v131h129zM641 505h136l-147 -505h-132l-108 344l-100 -344h-133l-147 505h138l87 -326l90 326h139l97 -329z" />
    <glyph glyph-name="Ygrave" unicode="&#x1ef2;" horiz-adv-x="675" 
d="M388 750h-104l-97 138h147zM500 700h160l-250 -428v-272h-145v271l-250 429h162l164 -293z" />
    <glyph glyph-name="ygrave" unicode="&#x1ef3;" horiz-adv-x="543" 
d="M326 560h-104l-97 140h147zM390 505h143l-275 -705h-141l92 219l-199 486h144l124 -327z" />
    <glyph glyph-name="endash" unicode="&#x2013;" horiz-adv-x="657" 
d="M65 206v130h527v-130h-527z" />
    <glyph glyph-name="emdash" unicode="&#x2014;" horiz-adv-x="810" 
d="M65 206v130h680v-130h-680z" />
    <glyph glyph-name="quoteleft" unicode="&#x2018;" horiz-adv-x="246" 
d="M158 663q-20 0 -32.5 -13.5t-12.5 -36.5v-35h83v-140h-146v167q0 50 29.5 80t78.5 30q43 0 73 -21l-24 -43q-20 12 -49 12z" />
    <glyph glyph-name="quoteright" unicode="&#x2019;" horiz-adv-x="246" 
d="M50 700h146v-167q0 -50 -29.5 -80t-78.5 -30q-43 0 -73 21l24 43q20 -12 49 -12q20 0 32.5 13.5t12.5 36.5v35h-83v140z" />
    <glyph glyph-name="quotesinglbase" unicode="&#x201a;" horiz-adv-x="246" 
d="M50 140h146v-167q0 -50 -29.5 -80t-78.5 -30q-43 0 -73 21l24 43q20 -12 49 -12q20 0 32.5 13.5t12.5 36.5v35h-83v140z" />
    <glyph glyph-name="quotedblleft" unicode="&#x201c;" horiz-adv-x="457" 
d="M50 605q0 50 29.5 80t78.5 30q43 0 73 -21l-24 -43q-20 12 -49 12q-20 0 -32.5 -13.5t-12.5 -36.5v-35h83v-140h-146v167zM369 663q-20 0 -32.5 -13.5t-12.5 -36.5v-35h83v-140h-146v167q0 50 29.5 80t78.5 30q43 0 73 -21l-24 -43q-20 12 -49 12z" />
    <glyph glyph-name="quotedblright" unicode="&#x201d;" horiz-adv-x="457" 
d="M50 560v140h146v-167q0 -50 -29.5 -80t-78.5 -30q-43 0 -73 21l24 43q20 -12 49 -12q20 0 32.5 13.5t12.5 36.5v35h-83zM261 700h146v-167q0 -50 -29.5 -80t-78.5 -30q-43 0 -73 21l24 43q20 -12 49 -12q20 0 32.5 13.5t12.5 36.5v35h-83v140z" />
    <glyph glyph-name="quotedblbase" unicode="&#x201e;" horiz-adv-x="457" 
d="M50 0v140h146v-167q0 -50 -29.5 -80t-78.5 -30q-43 0 -73 21l24 43q20 -12 49 -12q20 0 32.5 13.5t12.5 36.5v35h-83zM261 140h146v-167q0 -50 -29.5 -80t-78.5 -30q-43 0 -73 21l24 43q20 -12 49 -12q20 0 32.5 13.5t12.5 36.5v35h-83v140z" />
    <glyph glyph-name="dagger" unicode="&#x2020;" horiz-adv-x="605" 
d="M525 520v-130h-150v-590h-145v590h-150v130h150v180h145v-180h150z" />
    <glyph glyph-name="daggerdbl" unicode="&#x2021;" horiz-adv-x="605" 
d="M525 390h-150v-280h150v-130h-150v-180h-145v180h-150v130h150v280h-150v130h150v180h145v-180h150v-130z" />
    <glyph glyph-name="bullet" unicode="&#x2022;" horiz-adv-x="622" 
d="M311 86q-94 0 -162.5 68.5t-68.5 162.5t68.5 162.5t162.5 68.5q97 0 164 -68t67 -163t-67 -163t-164 -68z" />
    <glyph glyph-name="ellipsis" unicode="&#x2026;" horiz-adv-x="686" 
d="M50 0v142h146v-142h-146zM270 0v142h146v-142h-146zM490 0v142h146v-142h-146z" />
    <glyph glyph-name="perthousand" unicode="&#x2030;" horiz-adv-x="1217" 
d="M195 329q-73 0 -116.5 51t-43.5 139t43.5 139.5t116.5 51.5q72 0 115.5 -51.5t43.5 -139.5t-43.5 -139t-115.5 -51zM206 1l333 699h111l-332 -699h-112zM195 411q61 0 61 108q0 109 -61 109q-62 0 -62 -109q0 -108 62 -108zM661 -13q-73 0 -116.5 51t-43.5 139
t43.5 139.5t116.5 51.5q72 0 115.5 -51.5t43.5 -139.5t-43.5 -139t-115.5 -51zM1023 -13q-73 0 -116.5 51t-43.5 139t43.5 139.5t116.5 51.5q72 0 115.5 -51.5t43.5 -139.5t-43.5 -139t-115.5 -51zM661 69q61 0 61 108q0 109 -61 109q-62 0 -62 -109q0 -108 62 -108z
M1023 69q61 0 61 108q0 109 -61 109q-62 0 -62 -109q0 -108 62 -108z" />
    <glyph glyph-name="guilsinglleft" unicode="&#x2039;" horiz-adv-x="264" 
d="M224 540v-124l-95 -66l95 -65v-124l-184 126v127z" />
    <glyph glyph-name="guilsinglright" unicode="&#x203a;" horiz-adv-x="264" 
d="M40 540l184 -126v-127l-184 -126v124l95 65l-95 66v124z" />
    <glyph glyph-name="fraction" unicode="&#x2044;" horiz-adv-x="289" 
d="M-180 0l512 700h137l-510 -700h-139z" />
    <glyph glyph-name="Euro" unicode="&#x20ac;" horiz-adv-x="680" 
d="M520 267l129 -24q-24 -122 -99.5 -187.5t-184.5 -65.5q-106 0 -178.5 66.5t-96.5 184.5h-60v75h51q-1 11 -1 33v20h-50v74h58q21 127 97.5 199.5t189.5 72.5q99 0 173 -61t96 -176l-129 -31q-19 66 -56.5 102t-88.5 36q-52 0 -87.5 -36.5t-49.5 -105.5h158l-11 -74h-155
v-20q0 -22 1 -33h146l-11 -75h-124q32 -121 133 -121q56 0 95 39t55 108z" />
    <glyph glyph-name="trademark" unicode="&#x2122;" horiz-adv-x="777" 
d="M9 612v88h314v-88h-109v-262h-96v262h-109zM607 700h149v-350h-100v240l-62 -240h-84l-61 238v-238h-96v350h151l52 -220z" />
    <glyph glyph-name="estimated" unicode="&#x212e;" horiz-adv-x="858" 
d="M429 0q-172 0 -280.5 97t-108.5 257q0 159 109 257.5t280 98.5q174 0 277.5 -95t111.5 -270h-619q-8 0 -11.5 -3t-3.5 -15v-174q0 -34 73 -79.5t172 -45.5q71 0 136.5 31.5t109.5 81.5h72q-70 -78 -140 -109.5t-178 -31.5zM199 367h457q11 0 14 3.5t3 12.5v171
q0 42 -81.5 86.5t-163.5 44.5q-94 0 -169 -47t-75 -77v-185q0 -9 15 -9z" />
    <glyph glyph-name="partialdiff" unicode="&#x2202;" horiz-adv-x="620" 
d="M318 715q117 0 184.5 -87t67.5 -237q0 -187 -79.5 -294t-218.5 -107q-107 0 -172 60t-65 161q0 107 67.5 174t176.5 67q99 0 153 -67q3 98 -29.5 151.5t-97.5 53.5q-76 0 -119 -102l-115 39q63 188 247 188zM283 115q51 0 84 34.5t33 87.5q0 45 -28 73.5t-73 28.5
q-52 0 -85.5 -35t-33.5 -88q0 -46 28 -73.5t75 -27.5z" />
    <glyph glyph-name="emptyset" unicode="&#x2205;" horiz-adv-x="520" 
d="M436 475q44 -58 44 -132q0 -91 -64 -155.5t-156 -64.5q-74 0 -132 44l-41 -41l-45 45l41 41q-43 59 -43 131q0 91 64 155.5t156 64.5q72 0 131 -43l41 41l45 -45zM121 344q0 -40 20 -74l193 193q-33 22 -74 22q-58 0 -98.5 -41t-40.5 -100zM260 201q57 0 97.5 42
t40.5 101q0 41 -20 73l-193 -193q32 -23 75 -23z" />
    <glyph glyph-name="product" unicode="&#x220f;" horiz-adv-x="678" 
d="M663 700v-130h-100v-570h-145v570h-158v-570h-145v570h-100v130h648z" />
    <glyph glyph-name="summation" unicode="&#x2211;" horiz-adv-x="570" 
d="M220 130h315v-130h-495v122l186 229l-184 227v122h491v-130h-310l177 -219z" />
    <glyph glyph-name="minus" unicode="&#x2212;" horiz-adv-x="600" 
d="M50 290v120h500v-120h-500z" />
    <glyph glyph-name="radical" unicode="&#x221a;" horiz-adv-x="642" 
d="M602 700v-130h-105l-148 -570h-164l-145 363h151l67 -197l132 534h212z" />
    <glyph glyph-name="infinity" unicode="&#x221e;" horiz-adv-x="685" 
d="M482 518q75 0 119 -45.5t44 -122.5q0 -80 -45.5 -127.5t-121.5 -47.5q-94 0 -146 77q-19 -33 -53 -55t-76 -22q-75 0 -119 45t-44 122q0 80 45.5 128t121.5 48q95 0 146 -80q20 37 55.5 58.5t73.5 21.5zM214 275q26 0 43.5 13t35.5 41q-9 23 -15 35t-16 26.5t-21.5 21
t-26.5 6.5q-30 0 -46.5 -20t-16.5 -53q0 -32 17 -51t46 -19zM471 275q31 0 47 21t16 52q0 32 -17 51t-46 19q-26 0 -43 -13.5t-37 -42.5q12 -29 20.5 -44.5t24.5 -29t35 -13.5z" />
    <glyph glyph-name="integral" unicode="&#x222b;" horiz-adv-x="407" 
d="M73 -210q-99 0 -144 70l84 68q19 -21 43 -21q22 0 36 15t14 40v575q0 76 48 124.5t123 48.5q105 0 150 -81l-90 -57q-18 21 -44 21q-20 0 -33.5 -14.5t-13.5 -38.5v-577q0 -78 -47.5 -125.5t-125.5 -47.5z" />
    <glyph glyph-name="approxequal" unicode="&#x2248;" horiz-adv-x="600" 
d="M389 364q-34 0 -70 18.5t-64 37t-43 18.5q-38 0 -53 -69h-107q9 87 48.5 138t111.5 51q35 0 70.5 -18.5t63 -37t41.5 -18.5q21 0 32.5 16.5t19.5 52.5h109q-9 -87 -48.5 -138t-110.5 -51zM389 144q-34 0 -70 18.5t-64 37t-43 18.5q-38 0 -53 -69h-107q9 87 48.5 138
t111.5 51q35 0 70.5 -18.5t63 -37t41.5 -18.5q21 0 32.5 16.5t19.5 52.5h109q-9 -87 -48.5 -138t-110.5 -51z" />
    <glyph glyph-name="notequal" unicode="&#x2260;" horiz-adv-x="600" 
d="M550 389h-159l-43 -75h202v-120h-271l-70 -122l-104 60l36 62h-91v120h160l43 75h-203v120h272l69 120l104 -60l-35 -60h90v-120z" />
    <glyph glyph-name="lessequal" unicode="&#x2264;" horiz-adv-x="600" 
d="M525 640v-132l-305 -103l305 -103v-132l-460 175v120zM65 0v120h460v-120h-460z" />
    <glyph glyph-name="greaterequal" unicode="&#x2265;" horiz-adv-x="600" 
d="M75 640l460 -175v-120l-460 -175v132l305 103l-305 103v132zM75 0v120h460v-120h-460z" />
    <glyph glyph-name="lozenge" unicode="&#x25ca;" horiz-adv-x="482" 
d="M287 700l155 -350l-156 -350h-90l-156 350l157 350h90zM243 105l98 246l-101 243l-98 -245z" />
    <glyph glyph-name="zero.dnom" horiz-adv-x="462" 
d="M231 -6q-94 0 -145 56.5t-51 160.5q0 105 51 162t145 57t145 -56.5t51 -162.5q0 -104 -51 -160.5t-145 -56.5zM231 87q44 0 68 32.5t24 91.5q0 60 -24 93t-68 33t-68 -32.5t-24 -93.5q0 -59 24 -91.5t68 -32.5z" />
    <glyph glyph-name="one.dnom" horiz-adv-x="296" 
d="M152 420h82v-420h-103v282q-39 -30 -111 -35v98q53 5 84.5 22t47.5 53z" />
    <glyph glyph-name="two.dnom" horiz-adv-x="431" 
d="M216 93h175v-93h-345v84l89 45q149 75 149 149q0 27 -18.5 43t-50.5 16q-33 0 -52 -16.5t-19 -43.5q0 -12 5 -29l-90 -29q-14 30 -14 60q0 69 47.5 110t127.5 41q76 0 122 -39.5t46 -104.5q0 -114 -172 -193z" />
    <glyph glyph-name="three.dnom" horiz-adv-x="413" 
d="M294 222q42 -11 65.5 -38.5t23.5 -66.5q0 -56 -48.5 -89.5t-130.5 -33.5q-76 0 -122.5 31.5t-56.5 87.5l98 16q22 -45 83 -45q34 0 54 12.5t20 34.5q0 44 -80 44h-35v84h26q72 0 72 44q0 17 -16 28t-41 11q-55 0 -71 -54l-93 12q11 62 53 96t114 34q71 0 113.5 -32.5
t42.5 -86.5q0 -68 -71 -89z" />
    <glyph glyph-name="four.dnom" horiz-adv-x="407" 
d="M394 170v-91h-58v-79h-100v79h-223v85l218 256h105v-250h58zM240 298l-108 -128h108v128z" />
    <glyph glyph-name="five.dnom" horiz-adv-x="418" 
d="M233 284q71 0 113 -38.5t42 -103.5q0 -68 -50.5 -108t-134.5 -40q-65 0 -108.5 27.5t-59.5 77.5l94 32q24 -44 79 -44q35 0 56.5 15.5t21.5 41.5t-20 41.5t-54 15.5q-49 0 -82 -29l-93 21l35 227h290v-93h-209l-12 -72q39 29 92 29z" />
    <glyph glyph-name="six.dnom" horiz-adv-x="433" 
d="M244 271q72 0 115.5 -36t43.5 -93q0 -68 -49.5 -108t-128.5 -40q-90 0 -140 54t-50 158q0 101 53 162.5t141 61.5q119 0 158 -107l-85 -29q-24 47 -71 47q-44 0 -69 -29t-28 -82q43 41 110 41zM224 83q34 0 55 14.5t21 39.5q0 24 -21.5 39t-54.5 15t-54 -15t-21 -39
t21 -39t54 -15z" />
    <glyph glyph-name="seven.dnom" horiz-adv-x="397" 
d="M20 420h357v-81q-58 -59 -88.5 -95t-45 -74.5t-17 -64t-2.5 -84.5v-21h-103v21q0 99 24.5 160t106.5 146h-136v-43h-96v136z" />
    <glyph glyph-name="eight.dnom" horiz-adv-x="421" 
d="M303 222q88 -30 88 -104q0 -55 -50.5 -89.5t-130.5 -34.5t-130 35t-50 89q0 74 88 104q-71 28 -71 92q0 51 45.5 83.5t117.5 32.5q73 0 118.5 -32.5t45.5 -83.5q0 -64 -71 -92zM211 341q-30 0 -47.5 -11.5t-17.5 -29.5q0 -19 18 -31t47 -12t46.5 12t17.5 31
q0 18 -17.5 29.5t-46.5 11.5zM210 83q35 0 57 13t22 35q0 24 -21.5 38.5t-57.5 14.5q-34 0 -56 -14.5t-22 -38.5q0 -22 21.5 -35t56.5 -13z" />
    <glyph glyph-name="nine.dnom" horiz-adv-x="434" 
d="M209 430q91 0 140.5 -54t49.5 -154q0 -104 -53 -166t-141 -62q-118 0 -158 105l86 29q25 -45 69 -45t69.5 28.5t27.5 82.5q-41 -41 -109 -41q-72 0 -116 35.5t-44 94.5q0 67 51 107t128 40zM210 233q33 0 54 15t21 39t-21 39t-54 15q-35 0 -55.5 -14.5t-20.5 -39.5
q0 -24 21.5 -39t54.5 -15z" />
    <glyph glyph-name="zero.numr" horiz-adv-x="462" 
d="M231 274q-94 0 -145 56.5t-51 160.5q0 105 51 162t145 57t145 -56.5t51 -162.5q0 -104 -51 -160.5t-145 -56.5zM231 367q44 0 68 32.5t24 91.5q0 60 -24 93t-68 33t-68 -32.5t-24 -93.5q0 -59 24 -91.5t68 -32.5z" />
    <glyph glyph-name="one.numr" horiz-adv-x="296" 
d="M152 700h82v-420h-103v282q-39 -30 -111 -35v98q53 5 84.5 22t47.5 53z" />
    <glyph glyph-name="two.numr" horiz-adv-x="431" 
d="M216 373h175v-93h-345v84l89 45q149 75 149 149q0 27 -18.5 43t-50.5 16q-33 0 -52 -16.5t-19 -43.5q0 -12 5 -29l-90 -29q-14 30 -14 60q0 69 47.5 110t127.5 41q76 0 122 -39.5t46 -104.5q0 -114 -172 -193z" />
    <glyph glyph-name="three.numr" horiz-adv-x="413" 
d="M294 502q42 -11 65.5 -38.5t23.5 -66.5q0 -56 -48.5 -89.5t-130.5 -33.5q-76 0 -122.5 31.5t-56.5 87.5l98 16q22 -45 83 -45q34 0 54 12.5t20 34.5q0 44 -80 44h-35v84h26q72 0 72 44q0 17 -16 28t-41 11q-55 0 -71 -54l-93 12q11 62 53 96t114 34q71 0 113.5 -32.5
t42.5 -86.5q0 -68 -71 -89z" />
    <glyph glyph-name="four.numr" horiz-adv-x="407" 
d="M394 450v-91h-58v-79h-100v79h-223v85l218 256h105v-250h58zM240 578l-108 -128h108v128z" />
    <glyph glyph-name="five.numr" horiz-adv-x="418" 
d="M233 564q71 0 113 -38.5t42 -103.5q0 -68 -50.5 -108t-134.5 -40q-65 0 -108.5 27.5t-59.5 77.5l94 32q24 -44 79 -44q35 0 56.5 15.5t21.5 41.5t-20 41.5t-54 15.5q-49 0 -82 -29l-93 21l35 227h290v-93h-209l-12 -72q39 29 92 29z" />
    <glyph glyph-name="six.numr" horiz-adv-x="433" 
d="M244 551q72 0 115.5 -36t43.5 -93q0 -68 -49.5 -108t-128.5 -40q-90 0 -140 54t-50 158q0 101 53 162.5t141 61.5q119 0 158 -107l-85 -29q-24 47 -71 47q-44 0 -69 -29t-28 -82q43 41 110 41zM224 363q34 0 55 14.5t21 39.5q0 24 -21.5 39t-54.5 15t-54 -15t-21 -39
t21 -39t54 -15z" />
    <glyph glyph-name="seven.numr" horiz-adv-x="397" 
d="M20 700h357v-81q-58 -59 -88.5 -95t-45 -74.5t-17 -64t-2.5 -84.5v-21h-103v21q0 99 24.5 160t106.5 146h-136v-43h-96v136z" />
    <glyph glyph-name="eight.numr" horiz-adv-x="421" 
d="M303 502q88 -30 88 -104q0 -55 -50.5 -89.5t-130.5 -34.5t-130 35t-50 89q0 74 88 104q-71 28 -71 92q0 51 45.5 83.5t117.5 32.5q73 0 118.5 -32.5t45.5 -83.5q0 -64 -71 -92zM211 621q-30 0 -47.5 -11.5t-17.5 -29.5q0 -19 18 -31t47 -12t46.5 12t17.5 31
q0 18 -17.5 29.5t-46.5 11.5zM210 363q35 0 57 13t22 35q0 24 -21.5 38.5t-57.5 14.5q-34 0 -56 -14.5t-22 -38.5q0 -22 21.5 -35t56.5 -13z" />
    <glyph glyph-name="nine.numr" horiz-adv-x="434" 
d="M209 710q91 0 140.5 -54t49.5 -154q0 -104 -53 -166t-141 -62q-118 0 -158 105l86 29q25 -45 69 -45t69.5 28.5t27.5 82.5q-41 -41 -109 -41q-72 0 -116 35.5t-44 94.5q0 67 51 107t128 40zM210 513q33 0 54 15t21 39t-21 39t-54 15q-35 0 -55.5 -14.5t-20.5 -39.5
q0 -24 21.5 -39t54.5 -15z" />
    <glyph glyph-name="parenleft.case" horiz-adv-x="348" 
d="M241 -73q-92 92 -141.5 201t-49.5 222q0 112 49.5 222t141.5 201l87 -73q-139 -161 -139 -350t139 -350z" />
    <glyph glyph-name="parenright.case" horiz-adv-x="348" 
d="M107 -73l-87 73q139 161 139 350t-139 350l87 73q92 -91 141.5 -201t49.5 -222q0 -113 -49.5 -222t-141.5 -201z" />
    <glyph glyph-name="braceleft.case" horiz-adv-x="331" 
d="M238 484q0 -90 -61 -115q61 -25 61 -115v-217q0 -18 5.5 -27.5t25.5 -9.5h42v-107h-80q-59 0 -91.5 33t-32.5 97v223q0 43 -8.5 58t-38.5 15h-25v100h25q30 0 38.5 15t8.5 58v184q0 64 32.5 97t91.5 33h80v-106h-42q-20 0 -25.5 -9.5t-5.5 -27.5v-179z" />
    <glyph glyph-name="braceright.case" horiz-adv-x="331" 
d="M271 419h25v-100h-25q-30 0 -38.5 -15t-8.5 -58v-223q0 -64 -32.5 -97t-91.5 -33h-80v107h42q20 0 25.5 9.5t5.5 27.5v217q0 90 61 115q-61 25 -61 115v179q0 18 -5.5 27.5t-25.5 9.5h-42v106h80q59 0 91.5 -33t32.5 -97v-184q0 -43 8.5 -58t38.5 -15z" />
    <glyph glyph-name="bracketleft.case" horiz-adv-x="338" 
d="M318 700h-108v-700h108v-115h-238v930h238v-115z" />
    <glyph glyph-name="bracketright.case" horiz-adv-x="338" 
d="M20 815h238v-930h-238v115h108v700h-108v115z" />
    <glyph glyph-name="caroncomb.alt" 
d="M-146 537v163h106l-32 -163h-74z" />
    <glyph glyph-name="uni0308.case" 
d="M-356 750v131h129v-131h-129zM-169 750v131h129v-131h-129z" />
    <glyph glyph-name="uni0307.case" 
d="M-187 750v131h147v-131h-147z" />
    <glyph glyph-name="gravecomb.case" 
d="M-144 750l-97 138h147l54 -138h-104z" />
    <glyph glyph-name="acutecomb.case" 
d="M-241 750l54 138h147l-97 -138h-104z" />
    <glyph glyph-name="uni030B.case" 
d="M-382 750l42 139h137l-86 -139h-93zM-219 750l43 139h136l-85 -139h-94z" />
    <glyph glyph-name="uni0302.case" 
d="M-350 750l85 138h140l85 -138h-93l-60 59l-64 -59h-93z" />
    <glyph glyph-name="uni030C.case" 
d="M-265 750l-85 138h93l62 -59l62 59h93l-85 -138h-140z" />
    <glyph glyph-name="uni0306.case" 
d="M-176 747q-65 0 -100.5 36.5t-35.5 102.5h83q3 -51 53 -51t53 51h83q0 -66 -35.5 -102.5t-100.5 -36.5z" />
    <glyph glyph-name="uni030A.case" 
d="M-136 747q-40 0 -68 27t-28 65t28 65t68 27t68 -27t28 -65t-28 -65t-68 -27zM-136 802q16 0 26.5 10.5t10.5 26.5t-10.5 26.5t-26.5 10.5t-26.5 -10.5t-10.5 -26.5t10.5 -26.5t26.5 -10.5z" />
    <glyph glyph-name="tildecomb.case" 
d="M-135 746q-31 0 -60.5 22.5t-44.5 22.5q-35 0 -38 -41h-72q0 65 25.5 102t70.5 37q28 0 58 -22.5t45 -22.5q17 0 27.5 11.5t11.5 30.5h72q0 -65 -25.5 -102.5t-69.5 -37.5z" />
    <glyph glyph-name="uni0304.case" 
d="M-319 750v100h279v-100h-279z" />
    <glyph glyph-name="uni0307.i" 
d="M-187 579v131h147v-131h-147z" />
    </font>
</defs>
</svg>
